<svg width="243" height="40" viewBox="0 0 243 40" fill="none" xmlns="http://www.w3.org/2000/svg">
<path d="M3.18312 22.3073C4.25044 22.9052 5.33032 23.447 6.42275 23.9327C7.52774 24.406 8.6704 24.8108 9.85073 25.1471C11.0311 25.471 12.2679 25.7201 13.5612 25.8944C14.8671 26.0688 16.2546 26.156 17.7238 26.156C19.4943 26.156 21.0011 26.0439 22.2442 25.8197C23.4873 25.5831 24.4981 25.2655 25.2766 24.8669C26.0677 24.4559 26.639 23.9701 26.9906 23.4096C27.3548 22.8491 27.5368 22.2388 27.5368 21.5787C27.5368 20.52 27.0911 19.6855 26.1996 19.0752C25.308 18.4524 23.9331 18.1411 22.0747 18.1411C21.2585 18.1411 20.3984 18.1971 19.4943 18.3092C18.5902 18.4088 17.6736 18.5209 16.7444 18.6455C15.8277 18.77 14.9174 18.8884 14.0133 19.0005C13.1218 19.1001 12.2805 19.1499 11.4894 19.1499C10.1709 19.1499 8.9027 18.9818 7.6847 18.6455C6.47926 18.3092 5.40566 17.8048 4.46391 17.1322C3.53471 16.4596 2.79387 15.6189 2.24137 14.61C1.68888 13.6011 1.41263 12.4241 1.41263 11.0789C1.41263 10.2818 1.51936 9.49089 1.73282 8.70621C1.95885 7.92153 2.31043 7.17422 2.78759 6.46427C3.2773 5.74187 3.90513 5.07551 4.67109 4.4652C5.43705 3.84244 6.35997 3.30687 7.43984 2.85848C8.53228 2.41009 9.78795 2.06134 11.2069 1.81224C12.6383 1.55068 14.2644 1.4199 16.0851 1.4199C17.4036 1.4199 18.7283 1.49463 20.0593 1.64409C21.3903 1.7811 22.6837 1.98038 23.9393 2.24194C25.2076 2.5035 26.4256 2.82111 27.5933 3.19477C28.7611 3.55597 29.8473 3.96077 30.8518 4.40915L28.2337 9.19197C27.405 8.83076 26.5135 8.5007 25.5592 8.20177C24.6049 7.89039 23.6066 7.62261 22.5644 7.39841C21.5222 7.17422 20.4423 6.99984 19.3248 6.87529C18.2198 6.73828 17.0897 6.66978 15.9345 6.66978C14.2895 6.66978 12.9334 6.78811 11.8661 7.02475C10.8113 7.2614 9.97002 7.56656 9.34218 7.94021C8.71435 8.30142 8.27487 8.71244 8.02373 9.17328C7.78515 9.62167 7.66586 10.0701 7.66586 10.5184C7.66586 11.3903 8.0614 12.1065 8.85247 12.667C9.64355 13.215 10.849 13.489 12.4688 13.489C13.1218 13.489 13.8689 13.4454 14.7102 13.3582C15.564 13.2586 16.4556 13.1527 17.3848 13.0406C18.3265 12.9285 19.2808 12.8289 20.2477 12.7417C21.2271 12.6421 22.1751 12.5922 23.0918 12.5922C24.8246 12.5922 26.3565 12.7853 27.6875 13.1714C29.0311 13.5575 30.1549 14.1118 31.059 14.8342C31.9631 15.5441 32.6474 16.4098 33.112 17.4311C33.5766 18.44 33.8089 19.5734 33.8089 20.8314C33.8089 22.5128 33.4134 24.0137 32.6223 25.334C31.8438 26.6418 30.7262 27.7503 29.2697 28.6595C27.8256 29.5563 26.0803 30.2413 24.0335 30.7146C21.9868 31.1755 19.7077 31.4059 17.1964 31.4059C15.5389 31.4059 13.9191 31.3 12.337 31.0883C10.7548 30.889 9.23545 30.6025 7.77888 30.2289C6.33485 29.8428 4.95362 29.3881 3.63516 28.865C2.32927 28.3294 1.11755 27.744 0 27.1088L3.18312 22.3073Z" fill="#DEFD6D"/>
<path d="M34.105 19.972C34.105 18.3902 34.4252 16.908 35.0656 15.5255C35.7185 14.1429 36.6415 12.9348 37.8343 11.901C39.0398 10.8672 40.4901 10.0514 42.1852 9.45353C43.8929 8.85567 45.8078 8.55675 47.9299 8.55675C50.052 8.55675 51.9606 8.85567 53.6558 9.45353C55.3635 10.0514 56.8138 10.8672 58.0067 11.901C59.2121 12.9348 60.135 14.1429 60.7754 15.5255C61.4284 16.908 61.7549 18.3902 61.7549 19.972C61.7549 21.5538 61.4284 23.036 60.7754 24.4185C60.135 25.801 59.2121 27.0092 58.0067 28.043C56.8138 29.0768 55.3635 29.8926 53.6558 30.4904C51.9606 31.0883 50.052 31.3872 47.9299 31.3872C45.8078 31.3872 43.8929 31.0883 42.1852 30.4904C40.4901 29.8926 39.0398 29.0768 37.8343 28.043C36.6415 27.0092 35.7185 25.801 35.0656 24.4185C34.4252 23.036 34.105 21.5538 34.105 19.972ZM39.9627 19.972C39.9627 20.8563 40.1385 21.697 40.4901 22.4942C40.8542 23.2788 41.3753 23.9763 42.0534 24.5866C42.744 25.1845 43.579 25.664 44.5585 26.0252C45.5504 26.374 46.6743 26.5483 47.9299 26.5483C49.1856 26.5483 50.3031 26.374 51.2826 26.0252C52.2745 25.664 53.1096 25.1845 53.7876 24.5866C54.4782 23.9763 54.9993 23.2788 55.3509 22.4942C55.7151 21.697 55.8972 20.8563 55.8972 19.972C55.8972 19.0877 55.7151 18.2469 55.3509 17.4498C54.9993 16.6527 54.4782 15.9552 53.7876 15.3573C53.1096 14.747 52.2745 14.2675 51.2826 13.9187C50.3031 13.5575 49.1856 13.3769 47.9299 13.3769C46.6743 13.3769 45.5504 13.5575 44.5585 13.9187C43.579 14.2675 42.744 14.747 42.0534 15.3573C41.3753 15.9552 40.8542 16.6527 40.4901 17.4498C40.1385 18.2469 39.9627 19.0877 39.9627 19.972Z" fill="#DEFD6D"/>
<path d="M61.8061 20.028C61.8061 18.4088 62.1012 16.9018 62.6913 15.5068C63.2941 14.0993 64.1667 12.8849 65.3094 11.8636C66.4646 10.8298 67.871 10.0202 69.5285 9.43484C71.1985 8.84945 73.1008 8.55675 75.2355 8.55675C76.1647 8.55675 77.1001 8.6128 78.0419 8.72489C78.9837 8.83699 79.8877 8.99891 80.7541 9.21065C81.6331 9.40993 82.4556 9.65281 83.2215 9.93928C83.9875 10.2133 84.653 10.5184 85.218 10.8547L82.6376 15.021C81.4196 14.4605 80.2644 14.0495 79.172 13.7879C78.0921 13.5264 76.9934 13.3956 75.8759 13.3956C74.5951 13.3956 73.4461 13.5638 72.4291 13.9C71.412 14.2239 70.5455 14.6847 69.8298 15.2826C69.1266 15.868 68.5867 16.5655 68.21 17.3751C67.8459 18.1722 67.6638 19.0441 67.6638 19.9907C67.6638 20.9373 67.8584 21.8154 68.2477 22.6249C68.6495 23.4221 69.2083 24.1133 69.924 24.6987C70.6523 25.2717 71.525 25.7263 72.5421 26.0626C73.5717 26.3864 74.7144 26.5483 75.97 26.5483C77.3513 26.5483 78.6509 26.3553 79.8689 25.9692C81.0995 25.5831 82.2421 25.0662 83.2969 24.4185L85.8773 28.5848C85.2118 28.9833 84.4898 29.357 83.7113 29.7057C82.9327 30.042 82.0977 30.3347 81.2062 30.5838C80.3272 30.8329 79.398 31.026 78.4186 31.163C77.4517 31.3125 76.4472 31.3872 75.405 31.3872C73.2829 31.3872 71.3806 31.1007 69.698 30.5278C68.0154 29.9548 66.5902 29.1639 65.4224 28.1551C64.2546 27.1337 63.3568 25.9318 62.729 24.5493C62.1137 23.1667 61.8061 21.6597 61.8061 20.028Z" fill="#DEFD6D"/>
<path d="M90.5808 5.94115C90.0283 5.94115 89.526 5.86642 89.074 5.71695C88.6345 5.55504 88.2578 5.3433 87.9439 5.08174C87.6299 4.80772 87.3851 4.49634 87.2093 4.14759C87.0461 3.78639 86.9644 3.40651 86.9644 3.00794C86.9644 2.59692 87.0461 2.21703 87.2093 1.86829C87.3851 1.50708 87.6299 1.1957 87.9439 0.934143C88.2578 0.672583 88.6345 0.467071 89.074 0.317609C89.526 0.15569 90.0283 0.0747314 90.5808 0.0747314C91.1458 0.0747314 91.6481 0.15569 92.0876 0.317609C92.5396 0.467071 92.9226 0.672583 93.2365 0.934143C93.5504 1.1957 93.789 1.50708 93.9522 1.86829C94.128 2.21703 94.2159 2.59692 94.2159 3.00794C94.2159 3.40651 94.128 3.78639 93.9522 4.14759C93.789 4.49634 93.5504 4.80772 93.2365 5.08174C92.9226 5.3433 92.5396 5.55504 92.0876 5.71695C91.6481 5.86642 91.1458 5.94115 90.5808 5.94115ZM87.7932 8.94909H93.3683V30.9949H87.7932V8.94909Z" fill="#DEFD6D"/>
<path d="M95.2277 24.0448C95.2277 22.9861 95.46 22.0209 95.9246 21.149C96.3892 20.2771 97.0861 19.5298 98.0153 18.9071C98.9445 18.2718 100.1 17.7861 101.481 17.4498C102.875 17.101 104.495 16.9267 106.34 16.9267C107.709 16.9267 109.147 17.0263 110.654 17.2256C112.173 17.4249 113.736 17.73 115.344 18.1411C115.281 17.4436 115.067 16.8021 114.703 16.2167C114.339 15.6189 113.831 15.1082 113.178 14.6847C112.537 14.2488 111.759 13.9125 110.842 13.6759C109.938 13.4392 108.908 13.3209 107.753 13.3209C107.125 13.3209 106.435 13.3582 105.681 13.433C104.928 13.5077 104.149 13.6198 103.346 13.7693C102.542 13.9187 101.745 14.1056 100.954 14.3298C100.175 14.5539 99.4468 14.8217 98.7687 15.1331L97.0736 10.5932C97.9149 10.2943 98.8127 10.0202 99.767 9.77114C100.734 9.52203 101.72 9.31029 102.724 9.13592C103.729 8.94909 104.733 8.80585 105.738 8.70621C106.742 8.60657 107.715 8.55675 108.657 8.55675C112.813 8.55675 115.902 9.60922 117.924 11.7142C119.946 13.8191 120.956 17.045 120.956 21.3919V30.9949H115.381V28.9211C114.804 29.2574 114.17 29.575 113.479 29.8739C112.801 30.1728 112.06 30.4344 111.256 30.6586C110.453 30.8828 109.586 31.0571 108.657 31.1817C107.741 31.3187 106.767 31.3872 105.738 31.3872C104.005 31.3872 102.479 31.2004 101.161 30.8267C99.8549 30.4531 98.7625 29.9362 97.8835 29.276C97.0045 28.6159 96.339 27.8437 95.887 26.9594C95.4475 26.0626 95.2277 25.0911 95.2277 24.0448ZM101.104 23.858C101.104 24.2192 101.198 24.568 101.387 24.9043C101.575 25.2281 101.877 25.5208 102.291 25.7823C102.705 26.0315 103.233 26.237 103.873 26.3989C104.526 26.5483 105.311 26.6231 106.227 26.6231C107.207 26.6231 108.155 26.5359 109.072 26.3615C109.988 26.1871 110.842 25.9567 111.633 25.6702C112.424 25.3838 113.14 25.0537 113.78 24.6801C114.421 24.3064 114.954 23.9203 115.381 23.5217V22.5502C114.527 22.3136 113.68 22.1143 112.839 21.9524C112.01 21.7904 111.212 21.6659 110.446 21.5787C109.693 21.4791 108.977 21.4106 108.299 21.3732C107.634 21.3358 107.05 21.3171 106.548 21.3171C105.505 21.3171 104.639 21.3856 103.948 21.5227C103.258 21.6597 102.699 21.8465 102.272 22.0831C101.845 22.3073 101.544 22.5751 101.368 22.8865C101.192 23.1979 101.104 23.5217 101.104 23.858Z" fill="#DEFD6D"/>
<path d="M124.247 0H129.822V30.9949H124.247V0Z" fill="#DEFD6D"/>
<path d="M141.452 8.94909H147.027V10.8174C148.421 9.97042 149.777 9.38502 151.096 9.06119C152.427 8.72489 153.726 8.55675 154.994 8.55675C156.765 8.55675 158.391 8.83699 159.873 9.39748C161.354 9.95796 162.623 10.8049 163.677 11.9383C164.494 11.3156 165.297 10.7925 166.088 10.369C166.879 9.93305 167.67 9.58431 168.461 9.32275C169.253 9.04873 170.056 8.85567 170.872 8.74358C171.688 8.61903 172.53 8.55675 173.396 8.55675C175.217 8.55675 176.868 8.80585 178.35 9.30406C179.832 9.78982 181.093 10.5184 182.136 11.49C183.19 12.4615 184 13.6759 184.565 15.1331C185.143 16.5779 185.432 18.2532 185.432 20.1588V30.9949H179.875V21.0556C179.875 19.8474 179.7 18.77 179.348 17.8234C179.009 16.8644 178.526 16.061 177.898 15.4134C177.283 14.7532 176.542 14.255 175.675 13.9187C174.821 13.57 173.88 13.3956 172.85 13.3956C172.285 13.3956 171.707 13.4517 171.117 13.5638C170.527 13.6634 169.949 13.8253 169.384 14.0495C168.832 14.2737 168.311 14.5602 167.821 14.9089C167.331 15.2452 166.904 15.6438 166.54 16.1046V30.9949H160.984V21.0556C160.984 19.8474 160.808 18.77 160.457 17.8234C160.118 16.8644 159.634 16.061 159.006 15.4134C158.391 14.7532 157.644 14.255 156.765 13.9187C155.898 13.57 154.944 13.3956 153.902 13.3956C153.262 13.3956 152.615 13.4641 151.962 13.6011C151.322 13.7257 150.7 13.9063 150.097 14.1429C149.507 14.3796 148.948 14.666 148.421 15.0023C147.906 15.3386 147.442 15.7185 147.027 16.142V30.9949H141.452V8.94909Z" fill="#DEFD6D"/>
<path d="M187.159 24.0448C187.159 22.9861 187.392 22.0209 187.856 21.149C188.321 20.2771 189.018 19.5298 189.947 18.9071C190.876 18.2718 192.031 17.7861 193.413 17.4498C194.806 17.101 196.426 16.9267 198.272 16.9267C199.641 16.9267 201.078 17.0263 202.585 17.2256C204.105 17.4249 205.668 17.73 207.275 18.1411C207.212 17.4436 206.999 16.8021 206.635 16.2167C206.271 15.6189 205.762 15.1082 205.109 14.6847C204.469 14.2488 203.69 13.9125 202.774 13.6759C201.87 13.4392 200.84 13.3209 199.685 13.3209C199.057 13.3209 198.366 13.3582 197.613 13.433C196.859 13.5077 196.081 13.6198 195.277 13.7693C194.474 13.9187 193.676 14.1056 192.885 14.3298C192.107 14.5539 191.378 14.8217 190.7 15.1331L189.005 10.5932C189.846 10.2943 190.744 10.0202 191.699 9.77114C192.665 9.52203 193.651 9.31029 194.656 9.13592C195.66 8.94909 196.665 8.80585 197.669 8.70621C198.674 8.60657 199.647 8.55675 200.589 8.55675C204.745 8.55675 207.834 9.60922 209.856 11.7142C211.877 13.8191 212.888 17.045 212.888 21.3919V30.9949H207.313V28.9211C206.735 29.2574 206.101 29.575 205.411 29.8739C204.732 30.1728 203.992 30.4344 203.188 30.6586C202.384 30.8828 201.518 31.0571 200.589 31.1817C199.672 31.3187 198.699 31.3872 197.669 31.3872C195.936 31.3872 194.411 31.2004 193.092 30.8267C191.786 30.4531 190.694 29.9362 189.815 29.276C188.936 28.6159 188.271 27.8437 187.819 26.9594C187.379 26.0626 187.159 25.0911 187.159 24.0448ZM193.036 23.858C193.036 24.2192 193.13 24.568 193.318 24.9043C193.507 25.2281 193.808 25.5208 194.223 25.7823C194.637 26.0315 195.164 26.237 195.805 26.3989C196.458 26.5483 197.242 26.6231 198.159 26.6231C199.138 26.6231 200.086 26.5359 201.003 26.3615C201.92 26.1871 202.774 25.9567 203.565 25.6702C204.356 25.3838 205.071 25.0537 205.712 24.6801C206.352 24.3064 206.886 23.9203 207.313 23.5217V22.5502C206.459 22.3136 205.611 22.1143 204.77 21.9524C203.941 21.7904 203.144 21.6659 202.378 21.5787C201.625 21.4791 200.909 21.4106 200.231 21.3732C199.565 21.3358 198.981 21.3171 198.479 21.3171C197.437 21.3171 196.571 21.3856 195.88 21.5227C195.189 21.6597 194.631 21.8465 194.204 22.0831C193.777 22.3073 193.475 22.5751 193.3 22.8865C193.124 23.1979 193.036 23.5217 193.036 23.858Z" fill="#DEFD6D"/>
<path d="M221.453 40H215.878V8.94909H221.453V11.0229C221.942 10.6866 222.52 10.369 223.186 10.0701C223.851 9.77114 224.567 9.50957 225.333 9.28538C226.099 9.06119 226.89 8.88681 227.706 8.76226C228.522 8.62525 229.338 8.55675 230.154 8.55675C232.038 8.55675 233.765 8.83076 235.334 9.37879C236.916 9.92683 238.272 10.699 239.403 11.6955C240.533 12.6919 241.412 13.8876 242.039 15.2826C242.68 16.6651 243 18.1971 243 19.8786C243 21.6348 242.667 23.2228 242.002 24.6427C241.336 26.0501 240.413 27.2583 239.233 28.2672C238.065 29.2636 236.671 30.0358 235.052 30.5838C233.444 31.1194 231.699 31.3872 229.815 31.3872C229.012 31.3872 228.214 31.3374 227.423 31.2377C226.645 31.1381 225.892 31.0011 225.163 30.8267C224.447 30.6523 223.769 30.4468 223.129 30.2102C222.501 29.9611 221.942 29.6933 221.453 29.4068V40ZM221.453 24.0635C222.018 24.5119 222.614 24.8918 223.242 25.2032C223.87 25.5146 224.51 25.7699 225.163 25.9692C225.816 26.1685 226.475 26.3179 227.141 26.4176C227.806 26.5047 228.453 26.5483 229.081 26.5483C230.362 26.5483 231.498 26.3802 232.49 26.0439C233.495 25.6952 234.336 25.2219 235.014 24.624C235.705 24.0262 236.232 23.3224 236.596 22.5128C236.96 21.7033 237.142 20.8252 237.142 19.8786C237.142 18.9942 236.96 18.1597 236.596 17.3751C236.245 16.5904 235.73 15.9053 235.052 15.3199C234.386 14.7221 233.576 14.255 232.622 13.9187C231.68 13.57 230.619 13.3956 229.439 13.3956C228.685 13.3956 227.932 13.4703 227.179 13.6198C226.425 13.7568 225.697 13.9561 224.994 14.2177C224.303 14.4792 223.65 14.7968 223.035 15.1705C222.432 15.5441 221.905 15.9614 221.453 16.4222V24.0635Z" fill="#DEFD6D"/>
</svg>
