<svg width="474" height="150" viewBox="0 0 474 150" fill="none" xmlns="http://www.w3.org/2000/svg">
<path d="M302.42 64.5H293.7V89H288.32V64.5H279.6V60.08H302.42V64.5ZM331.287 68.48L324.767 89H320.807C320.354 89 320.04 88.7067 319.867 88.12L316.187 76.26C316.067 75.86 315.954 75.4667 315.847 75.08C315.754 74.68 315.674 74.28 315.607 73.88C315.527 74.28 315.434 74.6867 315.327 75.1C315.234 75.5 315.127 75.9 315.007 76.3L311.267 88.12C311.107 88.7067 310.754 89 310.207 89H306.407L299.907 68.48H303.847C304.207 68.48 304.514 68.5667 304.767 68.74C305.02 68.9133 305.187 69.1333 305.267 69.4L308.207 80.36C308.354 80.96 308.48 81.5467 308.587 82.12C308.707 82.6933 308.807 83.2667 308.887 83.84C309.034 83.2667 309.187 82.6933 309.347 82.12C309.52 81.5467 309.7 80.96 309.887 80.36L313.287 69.36C313.367 69.0933 313.52 68.8733 313.747 68.7C313.987 68.5267 314.274 68.44 314.607 68.44H316.787C317.134 68.44 317.427 68.5267 317.667 68.7C317.92 68.8733 318.087 69.0933 318.167 69.36L321.467 80.36C321.64 80.96 321.8 81.5533 321.947 82.14C322.107 82.7133 322.26 83.2867 322.407 83.86C322.58 82.7267 322.827 81.56 323.147 80.36L326.167 69.4C326.26 69.1333 326.427 68.9133 326.667 68.74C326.907 68.5667 327.194 68.48 327.527 68.48H331.287ZM339.216 68.48V89H334.256V68.48H339.216ZM339.896 62.5C339.896 62.9267 339.81 63.3267 339.636 63.7C339.463 64.0733 339.23 64.4 338.936 64.68C338.656 64.96 338.323 65.1867 337.936 65.36C337.55 65.52 337.136 65.6 336.696 65.6C336.27 65.6 335.863 65.52 335.476 65.36C335.103 65.1867 334.776 64.96 334.496 64.68C334.216 64.4 333.99 64.0733 333.816 63.7C333.656 63.3267 333.576 62.9267 333.576 62.5C333.576 62.06 333.656 61.6467 333.816 61.26C333.99 60.8733 334.216 60.54 334.496 60.26C334.776 59.98 335.103 59.76 335.476 59.6C335.863 59.4267 336.27 59.34 336.696 59.34C337.136 59.34 337.55 59.4267 337.936 59.6C338.323 59.76 338.656 59.98 338.936 60.26C339.23 60.54 339.463 60.8733 339.636 61.26C339.81 61.6467 339.896 62.06 339.896 62.5ZM351.093 89.32C349.306 89.32 347.933 88.82 346.973 87.82C346.026 86.8067 345.553 85.4133 345.553 83.64V72.18H343.453C343.186 72.18 342.959 72.0933 342.773 71.92C342.586 71.7467 342.493 71.4867 342.493 71.14V69.18L345.793 68.64L346.833 63.04C346.899 62.7733 347.026 62.5667 347.213 62.42C347.399 62.2733 347.639 62.2 347.933 62.2H350.493V68.66H359.033L360.093 63.04C360.159 62.7733 360.279 62.5667 360.453 62.42C360.639 62.2733 360.886 62.2 361.193 62.2H363.733V68.66H369.213V72.18H363.733V83.3C363.733 83.94 363.893 84.44 364.213 84.8C364.533 85.16 364.966 85.34 365.513 85.34C365.806 85.34 366.059 85.3067 366.273 85.24C366.486 85.16 366.666 85.08 366.812 85C366.973 84.92 367.113 84.8467 367.233 84.78C367.353 84.7 367.473 84.66 367.593 84.66C367.739 84.66 367.859 84.7 367.953 84.78C368.046 84.8467 368.146 84.9533 368.253 85.1L369.733 87.5C369.013 88.1 368.186 88.5533 367.253 88.86C366.319 89.1667 365.353 89.32 364.353 89.32C362.566 89.32 361.193 88.82 360.233 87.82C359.273 86.8067 358.793 85.4133 358.793 83.64V72.18H350.493V83.3C350.493 83.94 350.646 84.44 350.953 84.8C351.273 85.16 351.706 85.34 352.253 85.34C352.559 85.34 352.813 85.3067 353.013 85.24C353.226 85.16 353.406 85.08 353.553 85C353.713 84.92 353.853 84.8467 353.973 84.78C354.093 84.7 354.213 84.66 354.333 84.66C354.479 84.66 354.599 84.7 354.693 84.78C354.786 84.8467 354.886 84.9533 354.993 85.1L356.473 87.5C355.753 88.1 354.926 88.5533 353.993 88.86C353.059 89.1667 352.093 89.32 351.093 89.32ZM385.441 76.38C385.441 75.74 385.348 75.14 385.161 74.58C384.988 74.0067 384.721 73.5067 384.361 73.08C384.001 72.6533 383.541 72.32 382.981 72.08C382.435 71.8267 381.795 71.7 381.061 71.7C379.635 71.7 378.508 72.1067 377.681 72.92C376.868 73.7333 376.348 74.8867 376.121 76.38H385.441ZM376.021 79.36C376.101 80.4133 376.288 81.3267 376.581 82.1C376.875 82.86 377.261 83.4933 377.741 84C378.221 84.4933 378.788 84.8667 379.441 85.12C380.108 85.36 380.841 85.48 381.641 85.48C382.441 85.48 383.128 85.3867 383.701 85.2C384.288 85.0133 384.795 84.8067 385.221 84.58C385.661 84.3533 386.041 84.1467 386.361 83.96C386.695 83.7733 387.015 83.68 387.321 83.68C387.735 83.68 388.041 83.8333 388.241 84.14L389.661 85.94C389.115 86.58 388.501 87.12 387.821 87.56C387.141 87.9867 386.428 88.3333 385.681 88.6C384.948 88.8533 384.195 89.0333 383.421 89.14C382.661 89.2467 381.921 89.3 381.201 89.3C379.775 89.3 378.448 89.0667 377.221 88.6C375.995 88.12 374.928 87.42 374.021 86.5C373.115 85.5667 372.401 84.42 371.881 83.06C371.361 81.6867 371.101 80.1 371.101 78.3C371.101 76.9 371.328 75.5867 371.781 74.36C372.235 73.12 372.881 72.0467 373.721 71.14C374.575 70.22 375.608 69.4933 376.821 68.96C378.048 68.4267 379.428 68.16 380.961 68.16C382.255 68.16 383.448 68.3667 384.541 68.78C385.635 69.1933 386.575 69.8 387.361 70.6C388.148 71.3867 388.761 72.36 389.201 73.52C389.655 74.6667 389.881 75.98 389.881 77.46C389.881 78.2067 389.801 78.7133 389.641 78.98C389.481 79.2333 389.175 79.36 388.721 79.36H376.021ZM398.248 72.04C398.888 70.8133 399.648 69.8533 400.528 69.16C401.408 68.4533 402.448 68.1 403.648 68.1C404.595 68.1 405.355 68.3067 405.928 68.72L405.608 72.42C405.542 72.66 405.442 72.8333 405.308 72.94C405.188 73.0333 405.022 73.08 404.808 73.08C404.608 73.08 404.308 73.0467 403.908 72.98C403.522 72.9133 403.142 72.88 402.768 72.88C402.222 72.88 401.735 72.96 401.308 73.12C400.882 73.28 400.495 73.5133 400.148 73.82C399.815 74.1133 399.515 74.4733 399.248 74.9C398.995 75.3267 398.755 75.8133 398.528 76.36V89H393.588V68.48H396.488C396.995 68.48 397.348 68.5733 397.548 68.76C397.748 68.9333 397.882 69.2533 397.948 69.72L398.248 72.04Z" fill="#4759FF"/>
<path d="M240.966 88.922L233.179 76.489L225.691 88.922H220L230.603 72.3446L220 55.5234H226.17L233.958 67.8955L241.386 55.5234H247.076L236.533 72.0399L247.136 88.922H240.966Z" fill="#131730"/>
<path d="M17.0846 74.9359C13.8838 74.9359 11.0156 74.417 8.47995 73.3792C5.94428 72.3415 3.90743 70.8056 2.3694 68.7715C0.872936 66.7375 0.0831368 64.2884 0 61.4242H11.3482C11.5144 63.0431 12.0756 64.2884 13.0317 65.1601C13.9878 65.9903 15.2348 66.4054 16.7728 66.4054C18.3524 66.4054 19.5995 66.0526 20.514 65.3469C21.4285 64.5997 21.8857 63.5827 21.8857 62.2959C21.8857 61.2166 21.5116 60.3241 20.7634 59.6185C20.0567 58.9128 19.163 58.3316 18.0822 57.875C17.043 57.4184 15.5466 56.8995 13.5929 56.3184C10.7662 55.4466 8.45916 54.5749 6.67172 53.7032C4.88428 52.8315 3.34625 51.5446 2.05763 49.8427C0.769015 48.1408 0.124705 45.9199 0.124705 43.1802C0.124705 39.1122 1.60038 35.9366 4.55174 33.6536C7.50309 31.329 11.3482 30.1667 16.087 30.1667C20.9089 30.1667 24.7955 31.329 27.7469 33.6536C30.6982 35.9366 32.2778 39.133 32.4857 43.2425H20.9505C20.8673 41.8312 20.3477 40.7311 19.3916 39.9424C18.4356 39.1122 17.2093 38.6971 15.7128 38.6971C14.4242 38.6971 13.385 39.0499 12.5952 39.7556C11.8054 40.4198 11.4105 41.3953 11.4105 42.6821C11.4105 44.0935 12.0756 45.1935 13.4058 45.9822C14.736 46.7709 16.8144 47.6219 19.6411 48.5351C22.4677 49.4899 24.754 50.4031 26.4998 51.2748C28.2873 52.1465 29.8253 53.4126 31.1139 55.073C32.4025 56.7335 33.0469 58.8713 33.0469 61.4864C33.0469 63.9771 32.4025 66.2394 31.1139 68.2734C29.8669 70.3074 28.0379 71.9264 25.6269 73.1302C23.2159 74.334 20.3685 74.9359 17.0846 74.9359Z" fill="#131730"/>
<path d="M55.446 74.9981C52.0374 74.9981 48.9614 74.2717 46.2179 72.8188C43.5159 71.366 41.3751 69.2904 39.7955 66.5922C38.2575 63.894 37.4885 60.7392 37.4885 57.1278C37.4885 53.5579 38.2783 50.4239 39.8579 47.7257C41.4375 44.986 43.5991 42.8897 46.3426 41.4368C49.0861 39.9839 52.1621 39.2575 55.5707 39.2575C58.9793 39.2575 62.0554 39.9839 64.7989 41.4368C67.5424 42.8897 69.704 44.986 71.2836 47.7257C72.8632 50.4239 73.653 53.5579 73.653 57.1278C73.653 60.6977 72.8424 63.8525 71.2212 66.5922C69.6416 69.2904 67.4593 71.366 64.6742 72.8188C61.9307 74.2717 58.8546 74.9981 55.446 74.9981ZM55.446 65.7828C57.4829 65.7828 59.208 65.0356 60.6213 63.5412C62.0762 62.0468 62.8036 59.909 62.8036 57.1278C62.8036 54.3466 62.097 52.2088 60.6836 50.7144C59.3119 49.22 57.6076 48.4729 55.5707 48.4729C53.4923 48.4729 51.7672 49.22 50.3955 50.7144C49.0237 52.1673 48.3378 54.3051 48.3378 57.1278C48.3378 59.909 49.0029 62.0468 50.3331 63.5412C51.7049 65.0356 53.4092 65.7828 55.446 65.7828Z" fill="#131730"/>
<path d="M77.1895 57.1278C77.1895 53.5164 77.917 50.3616 79.3719 47.6634C80.8683 44.9652 82.926 42.8897 85.5448 41.4368C88.2052 39.9839 91.2396 39.2575 94.6483 39.2575C99.0129 39.2575 102.65 40.399 105.56 42.6821C108.511 44.9652 110.444 48.1823 111.359 52.3333H100.011C99.0545 49.6767 97.2047 48.3483 94.4612 48.3483C92.5075 48.3483 90.9487 49.1163 89.7848 50.6522C88.6208 52.1465 88.0389 54.3051 88.0389 57.1278C88.0389 59.9505 88.6208 62.1298 89.7848 63.6657C90.9487 65.1601 92.5075 65.9073 94.4612 65.9073C97.2047 65.9073 99.0545 64.579 100.011 61.9223H111.359C110.444 65.9903 108.511 69.1867 105.56 71.5112C102.609 73.8358 98.9714 74.9981 94.6483 74.9981C91.2396 74.9981 88.2052 74.2717 85.5448 72.8188C82.926 71.366 80.8683 69.2904 79.3719 66.5922C77.917 63.894 77.1895 60.7392 77.1895 57.1278Z" fill="#131730"/>
<path d="M122.424 36.1442C120.554 36.1442 119.016 35.6046 117.81 34.5253C116.646 33.4045 116.064 32.0346 116.064 30.4157C116.064 28.7553 116.646 27.3855 117.81 26.3062C119.016 25.1854 120.554 24.625 122.424 24.625C124.253 24.625 125.75 25.1854 126.914 26.3062C128.119 27.3855 128.722 28.7553 128.722 30.4157C128.722 32.0346 128.119 33.4045 126.914 34.5253C125.75 35.6046 124.253 36.1442 122.424 36.1442ZM127.724 39.7556V74.5H117.062V39.7556H127.724Z" fill="#131730"/>
<path d="M133.331 57.1901C133.331 60.76 133.996 63.894 135.326 66.5922C136.698 69.2904 138.548 71.366 140.876 72.8188C143.204 74.2717 145.802 74.9981 148.67 74.9981C151.122 74.9981 153.263 74.5 155.092 73.5038C156.963 72.5075 158.397 71.1999 159.395 69.581V74.5H170.057V39.7556H159.395V44.6746C158.355 43.0557 156.9 41.7481 155.03 40.7519C153.201 39.7556 151.06 39.2575 148.608 39.2575C145.781 39.2575 143.204 39.9839 140.876 41.4368C138.548 42.9312 136.698 45.0275 135.326 47.7257C133.996 50.4654 133.331 53.6202 133.331 57.1901ZM159.395 57.1278C159.395 59.7845 158.646 61.8808 157.15 63.4167C155.695 64.9526 153.908 65.7205 151.788 65.7205C149.668 65.7205 147.859 64.9526 146.363 63.4167C144.908 61.9223 144.181 59.8468 144.181 57.1901C144.181 54.5334 144.908 52.4164 146.363 50.839C147.859 49.3031 149.668 48.5351 151.788 48.5351C153.908 48.5351 155.695 49.3031 157.15 50.839C158.646 52.3749 159.395 54.4711 159.395 57.1278Z" fill="#131730"/>
<path d="M188.433 28.4232V74.5H177.771V28.4232H188.433Z" fill="#131730"/>
<mask id="path-4-outside-1_1405_390" maskUnits="userSpaceOnUse" x="20.6426" y="79.9688" width="147" height="54" fill="black">
<rect fill="white" x="20.6426" y="79.9688" width="147" height="54"/>
<path d="M65.9535 81.0934C70.2684 81.0934 73.6913 82.4025 76.2221 85.0208C78.7945 87.639 80.0807 91.2754 80.0807 95.93V116.252H69.5008V97.3638C69.5008 95.1196 68.8992 93.3949 67.696 92.1897C66.5343 90.9429 64.9162 90.3195 62.8417 90.3195C60.7673 90.3195 59.1284 90.9429 57.9252 92.1897C56.7635 93.3949 56.1827 95.1196 56.1827 97.3638V116.252H45.6028V97.3638C45.6028 95.1196 45.0012 93.3949 43.798 92.1897C42.6363 90.9429 41.0182 90.3195 38.9437 90.3195C36.8693 90.3195 35.2304 90.9429 34.0272 92.1897C32.8655 93.3949 32.2847 95.1196 32.2847 97.3638V116.252H21.6426V81.4675H32.2847V85.8312C33.3634 84.3766 34.774 83.2337 36.5166 82.4025C38.2592 81.5298 40.2299 81.0934 42.4289 81.0934C45.0427 81.0934 47.3661 81.6545 49.3991 82.7766C51.4736 83.8987 53.0917 85.4987 54.2534 87.5766C55.4566 85.6649 57.0954 84.1065 59.1699 82.9012C61.2444 81.696 63.5056 81.0934 65.9535 81.0934Z"/>
<path d="M85.4075 98.7976C85.4075 95.2235 86.0714 92.0858 87.399 89.3845C88.7682 86.6831 90.6145 84.6052 92.9379 83.1506C95.2613 81.696 97.8544 80.9688 100.717 80.9688C103.165 80.9688 105.302 81.4675 107.127 82.4649C108.994 83.4623 110.426 84.7714 111.422 86.3922V81.4675H122.064V116.252H111.422V111.328C110.384 112.948 108.932 114.258 107.065 115.255C105.24 116.252 103.103 116.751 100.655 116.751C97.8337 116.751 95.2613 116.024 92.9379 114.569C90.6145 113.073 88.7682 110.974 87.399 108.273C86.0714 105.53 85.4075 102.372 85.4075 98.7976ZM111.422 98.8599C111.422 96.2001 110.675 94.1014 109.181 92.5637C107.729 91.026 105.945 90.2572 103.829 90.2572C101.713 90.2572 99.9081 91.026 98.4145 92.5637C96.9624 94.0598 96.2363 96.1378 96.2363 98.7976C96.2363 101.457 96.9624 103.577 98.4145 105.156C99.9081 106.694 101.713 107.463 103.829 107.463C105.945 107.463 107.729 106.694 109.181 105.156C110.675 103.618 111.422 101.52 111.422 98.8599Z"/>
<path d="M140.405 86.3922C141.442 84.7714 142.873 83.4623 144.699 82.4649C146.524 81.4675 148.661 80.9688 151.109 80.9688C153.972 80.9688 156.565 81.696 158.888 83.1506C161.212 84.6052 163.037 86.6831 164.365 89.3845C165.734 92.0858 166.419 95.2235 166.419 98.7976C166.419 102.372 165.734 105.53 164.365 108.273C163.037 110.974 161.212 113.073 158.888 114.569C156.565 116.024 153.972 116.751 151.109 116.751C148.703 116.751 146.566 116.252 144.699 115.255C142.873 114.258 141.442 112.969 140.405 111.39V132.834H129.763V81.4675H140.405V86.3922ZM155.59 98.7976C155.59 96.1378 154.843 94.0598 153.349 92.5637C151.897 91.026 150.093 90.2572 147.935 90.2572C145.819 90.2572 144.014 91.026 142.521 92.5637C141.069 94.1014 140.343 96.2001 140.343 98.8599C140.343 101.52 141.069 103.618 142.521 105.156C144.014 106.694 145.819 107.463 147.935 107.463C150.051 107.463 151.856 106.694 153.349 105.156C154.843 103.577 155.59 101.457 155.59 98.7976Z"/>
</mask>
<path d="M65.9535 81.0934C70.2684 81.0934 73.6913 82.4025 76.2221 85.0208C78.7945 87.639 80.0807 91.2754 80.0807 95.93V116.252H69.5008V97.3638C69.5008 95.1196 68.8992 93.3949 67.696 92.1897C66.5343 90.9429 64.9162 90.3195 62.8417 90.3195C60.7673 90.3195 59.1284 90.9429 57.9252 92.1897C56.7635 93.3949 56.1827 95.1196 56.1827 97.3638V116.252H45.6028V97.3638C45.6028 95.1196 45.0012 93.3949 43.798 92.1897C42.6363 90.9429 41.0182 90.3195 38.9437 90.3195C36.8693 90.3195 35.2304 90.9429 34.0272 92.1897C32.8655 93.3949 32.2847 95.1196 32.2847 97.3638V116.252H21.6426V81.4675H32.2847V85.8312C33.3634 84.3766 34.774 83.2337 36.5166 82.4025C38.2592 81.5298 40.2299 81.0934 42.4289 81.0934C45.0427 81.0934 47.3661 81.6545 49.3991 82.7766C51.4736 83.8987 53.0917 85.4987 54.2534 87.5766C55.4566 85.6649 57.0954 84.1065 59.1699 82.9012C61.2444 81.696 63.5056 81.0934 65.9535 81.0934Z" stroke="#131730" stroke-width="2" mask="url(#path-4-outside-1_1405_390)"/>
<path d="M85.4075 98.7976C85.4075 95.2235 86.0714 92.0858 87.399 89.3845C88.7682 86.6831 90.6145 84.6052 92.9379 83.1506C95.2613 81.696 97.8544 80.9688 100.717 80.9688C103.165 80.9688 105.302 81.4675 107.127 82.4649C108.994 83.4623 110.426 84.7714 111.422 86.3922V81.4675H122.064V116.252H111.422V111.328C110.384 112.948 108.932 114.258 107.065 115.255C105.24 116.252 103.103 116.751 100.655 116.751C97.8337 116.751 95.2613 116.024 92.9379 114.569C90.6145 113.073 88.7682 110.974 87.399 108.273C86.0714 105.53 85.4075 102.372 85.4075 98.7976ZM111.422 98.8599C111.422 96.2001 110.675 94.1014 109.181 92.5637C107.729 91.026 105.945 90.2572 103.829 90.2572C101.713 90.2572 99.9081 91.026 98.4145 92.5637C96.9624 94.0598 96.2363 96.1378 96.2363 98.7976C96.2363 101.457 96.9624 103.577 98.4145 105.156C99.9081 106.694 101.713 107.463 103.829 107.463C105.945 107.463 107.729 106.694 109.181 105.156C110.675 103.618 111.422 101.52 111.422 98.8599Z" stroke="#131730" stroke-width="2" mask="url(#path-4-outside-1_1405_390)"/>
<path d="M140.405 86.3922C141.442 84.7714 142.873 83.4623 144.699 82.4649C146.524 81.4675 148.661 80.9688 151.109 80.9688C153.972 80.9688 156.565 81.696 158.888 83.1506C161.212 84.6052 163.037 86.6831 164.365 89.3845C165.734 92.0858 166.419 95.2235 166.419 98.7976C166.419 102.372 165.734 105.53 164.365 108.273C163.037 110.974 161.212 113.073 158.888 114.569C156.565 116.024 153.972 116.751 151.109 116.751C148.703 116.751 146.566 116.252 144.699 115.255C142.873 114.258 141.442 112.969 140.405 111.39V132.834H129.763V81.4675H140.405V86.3922ZM155.59 98.7976C155.59 96.1378 154.843 94.0598 153.349 92.5637C151.897 91.026 150.093 90.2572 147.935 90.2572C145.819 90.2572 144.014 91.026 142.521 92.5637C141.069 94.1014 140.343 96.2001 140.343 98.8599C140.343 101.52 141.069 103.618 142.521 105.156C144.014 106.694 145.819 107.463 147.935 107.463C150.051 107.463 151.856 106.694 153.349 105.156C154.843 103.577 155.59 101.457 155.59 98.7976Z" stroke="#131730" stroke-width="2" mask="url(#path-4-outside-1_1405_390)"/>
<path fill-rule="evenodd" clip-rule="evenodd" d="M94.0305 149C108.235 149 121.505 144.998 132.773 138.06H134.649C122.943 145.615 108.999 150 94.0305 150C69.8976 150 48.427 138.602 34.7082 120.896H35.9784C49.5322 138.016 70.4986 149 94.0305 149ZM34.274 31.3433C47.7365 12.9474 69.4882 1 94.0305 1C120.195 1 143.188 14.5792 156.347 35.0746H157.532C144.255 14.0014 120.778 0 94.0305 0C68.8952 0 46.6478 12.3646 33.0391 31.3433H34.274Z" fill="#131730"/>
</svg>
