<svg width="496" height="63" viewBox="0 0 496 63" fill="none" xmlns="http://www.w3.org/2000/svg">
<path d="M372.202 16.8597V21.5773H364.437V46H358.592V21.5773H350.827V16.8597H372.202ZM408.529 22.8715L401.766 46H395.462L391.246 29.8434L387.029 46H380.683L373.878 22.8715H379.807L383.898 40.4892L388.323 22.8715H394.502L398.844 40.4475L402.935 22.8715H408.529ZM414.656 20.1161C413.626 20.1161 412.763 19.796 412.068 19.1559C411.4 18.4879 411.066 17.6669 411.066 16.6927C411.066 15.7186 411.4 14.9115 412.068 14.2713C412.763 13.6034 413.626 13.2694 414.656 13.2694C415.686 13.2694 416.535 13.6034 417.203 14.2713C417.898 14.9115 418.246 15.7186 418.246 16.6927C418.246 17.6669 417.898 18.4879 417.203 19.1559C416.535 19.796 415.686 20.1161 414.656 20.1161ZM417.537 22.8715V46H411.692V22.8715H417.537ZM430.116 27.6725V38.861C430.116 39.6403 430.297 40.2109 430.659 40.5727C431.049 40.9067 431.689 41.0737 432.579 41.0737H435.293V46H431.619C426.693 46 424.23 43.6064 424.23 38.8193V27.6725H421.474V22.8715H424.23V17.152H430.116V22.8715H435.293V27.6725H430.116ZM446.302 27.6725V38.861C446.302 39.6403 446.483 40.2109 446.845 40.5727C447.234 40.9067 447.874 41.0737 448.765 41.0737H451.479V46H447.805C442.878 46 440.415 43.6064 440.415 38.8193V27.6725H437.66V22.8715H440.415V17.152H446.302V22.8715H451.479V27.6725H446.302ZM477.183 33.9348C477.183 34.7697 477.127 35.5212 477.016 36.1892H460.108C460.247 37.8591 460.831 39.1672 461.861 40.1135C462.891 41.0598 464.157 41.5329 465.66 41.5329C467.831 41.5329 469.376 40.6006 470.294 38.7358H476.598C475.93 40.9624 474.65 42.7993 472.757 44.2466C470.865 45.666 468.541 46.3757 465.786 46.3757C463.559 46.3757 461.555 45.8887 459.774 44.9145C458.02 43.9126 456.643 42.5071 455.641 40.698C454.667 38.8889 454.18 36.8015 454.18 34.4357C454.18 32.0422 454.667 29.9408 455.641 28.1317C456.615 26.3227 457.979 24.931 459.732 23.9569C461.485 22.9828 463.503 22.4957 465.786 22.4957C467.984 22.4957 469.946 22.9689 471.672 23.9152C473.425 24.8615 474.775 26.2113 475.722 27.9648C476.696 29.6903 477.183 31.6803 477.183 33.9348ZM471.129 32.2648C471.101 30.7619 470.559 29.5651 469.501 28.6745C468.444 27.756 467.149 27.2968 465.619 27.2968C464.171 27.2968 462.947 27.7421 461.945 28.6327C460.971 29.4955 460.372 30.7062 460.15 32.2648H471.129ZM487.294 26.4618C488.045 25.2372 489.019 24.277 490.216 23.5812C491.441 22.8854 492.832 22.5375 494.391 22.5375V28.6745H492.846C491.009 28.6745 489.618 29.1059 488.671 29.9687C487.753 30.8315 487.294 32.3344 487.294 34.4775V46H481.449V22.8715H487.294V26.4618Z" fill="#4759FF"/>
<path d="M310.966 45.923L303.179 33.49L295.691 45.923H290L300.603 29.3456L290 12.5244H296.17L303.958 24.8965L311.386 12.5244H317.076L306.533 29.0409L317.136 45.923H310.966Z" fill="#131730"/>
<path d="M3.32225 34.8067C4.43621 35.4307 5.56329 35.9962 6.70347 36.5032C7.85675 36.9972 9.04935 37.4196 10.2813 37.7706C11.5132 38.1086 12.8041 38.3686 14.1539 38.5506C15.5169 38.7326 16.9651 38.8236 18.4984 38.8236C20.3463 38.8236 21.919 38.7066 23.2164 38.4726C24.5138 38.2256 25.5688 37.8941 26.3814 37.4781C27.207 37.0492 27.8033 36.5422 28.1703 35.9572C28.5503 35.3722 28.7404 34.7352 28.7404 34.0462C28.7404 32.9413 28.2751 32.0703 27.3446 31.4333C26.4141 30.7833 24.9791 30.4583 23.0395 30.4583C22.1876 30.4583 21.2899 30.5168 20.3463 30.6338C19.4027 30.7378 18.446 30.8548 17.4762 30.9848C16.5195 31.1148 15.5693 31.2383 14.6257 31.3553C13.6953 31.4593 12.8172 31.5113 11.9915 31.5113C10.6155 31.5113 9.2918 31.3358 8.02057 30.9848C6.76244 30.6338 5.64192 30.1074 4.65901 29.4054C3.6892 28.7034 2.91598 27.8259 2.33933 26.773C1.76269 25.72 1.47437 24.4915 1.47437 23.0876C1.47437 22.2556 1.58577 21.4301 1.80856 20.6111C2.04446 19.7922 2.41141 19.0122 2.90942 18.2712C3.42054 17.5172 4.07581 16.8218 4.87525 16.1848C5.67468 15.5348 6.63794 14.9758 7.76501 14.5078C8.90519 14.0398 10.2157 13.6758 11.6967 13.4159C13.1907 13.1429 14.8879 13.0064 16.7882 13.0064C18.1642 13.0064 19.5469 13.0844 20.936 13.2404C22.3252 13.3834 23.6751 13.5914 24.9856 13.8643C26.3093 14.1373 27.5805 14.4688 28.7994 14.8588C30.0182 15.2358 31.1518 15.6583 32.2002 16.1263L29.4677 21.1181C28.6028 20.7411 27.6723 20.3966 26.6763 20.0847C25.6802 19.7597 24.6384 19.4802 23.5506 19.2462C22.4628 19.0122 21.3358 18.8302 20.1694 18.7002C19.0161 18.5572 17.8366 18.4857 16.6309 18.4857C14.9141 18.4857 13.4987 18.6092 12.3847 18.8562C11.2838 19.1032 10.4058 19.4217 9.7505 19.8117C9.09522 20.1887 8.63653 20.6176 8.37442 21.0986C8.12541 21.5666 8.00091 22.0346 8.00091 22.5026C8.00091 23.4126 8.41374 24.16 9.23938 24.745C10.065 25.317 11.3232 25.603 13.0138 25.603C13.6953 25.603 14.475 25.5575 15.3531 25.4665C16.2443 25.3625 17.1748 25.252 18.1446 25.135C19.1275 25.018 20.1235 24.914 21.1326 24.823C22.1549 24.719 23.1443 24.667 24.101 24.667C25.9096 24.667 27.5085 24.8685 28.8976 25.2715C30.2999 25.6745 31.4729 26.253 32.4165 27.007C33.3601 27.7479 34.0743 28.6514 34.5592 29.7174C35.0441 30.7703 35.2866 31.9533 35.2866 33.2663C35.2866 35.0212 34.8738 36.5877 34.0481 37.9656C33.2356 39.3306 32.0692 40.4875 30.5489 41.4365C29.0418 42.3725 27.2201 43.0875 25.0839 43.5815C22.9477 44.0624 20.5691 44.3029 17.948 44.3029C16.2181 44.3029 14.5275 44.1924 12.8762 43.9714C11.2249 43.7635 9.6391 43.4645 8.11886 43.0745C6.61173 42.6715 5.17012 42.197 3.79404 41.651C2.43107 41.092 1.16639 40.481 0 39.8181L3.32225 34.8067Z" fill="#131730"/>
<path d="M35.5956 32.3693C35.5956 30.7183 35.9298 29.1714 36.5982 27.7284C37.2797 26.2855 38.2429 25.0245 39.4879 23.9455C40.7461 22.8666 42.2598 22.0151 44.029 21.3911C45.8113 20.7671 47.8099 20.4551 50.0248 20.4551C52.2396 20.4551 54.2316 20.7671 56.0009 21.3911C57.7832 22.0151 59.2969 22.8666 60.5419 23.9455C61.8001 25.0245 62.7633 26.2855 63.4317 27.7284C64.1132 29.1714 64.4539 30.7183 64.4539 32.3693C64.4539 34.0202 64.1132 35.5672 63.4317 37.0102C62.7633 38.4531 61.8001 39.7141 60.5419 40.793C59.2969 41.872 57.7832 42.7235 56.0009 43.3475C54.2316 43.9714 52.2396 44.2834 50.0248 44.2834C47.8099 44.2834 45.8113 43.9714 44.029 43.3475C42.2598 42.7235 40.7461 41.872 39.4879 40.793C38.2429 39.7141 37.2797 38.4531 36.5982 37.0102C35.9298 35.5672 35.5956 34.0202 35.5956 32.3693ZM41.7093 32.3693C41.7093 33.2923 41.8928 34.1697 42.2598 35.0017C42.6398 35.8207 43.1837 36.5487 43.8914 37.1856C44.6122 37.8096 45.4837 38.3101 46.5059 38.6871C47.5413 39.0511 48.7142 39.2331 50.0248 39.2331C51.3353 39.2331 52.5017 39.0511 53.5239 38.6871C54.5593 38.3101 55.4308 37.8096 56.1385 37.1856C56.8593 36.5487 57.4032 35.8207 57.7701 35.0017C58.1502 34.1697 58.3402 33.2923 58.3402 32.3693C58.3402 31.4463 58.1502 30.5688 57.7701 29.7369C57.4032 28.9049 56.8593 28.1769 56.1385 27.5529C55.4308 26.916 54.5593 26.4155 53.5239 26.0515C52.5017 25.6745 51.3353 25.486 50.0248 25.486C48.7142 25.486 47.5413 25.6745 46.5059 26.0515C45.4837 26.4155 44.6122 26.916 43.8914 27.5529C43.1837 28.1769 42.6398 28.9049 42.2598 29.7369C41.8928 30.5688 41.7093 31.4463 41.7093 32.3693Z" fill="#131730"/>
<path d="M64.5074 32.4278C64.5074 30.7378 64.8154 29.1649 65.4313 27.7089C66.0604 26.24 66.9712 24.9725 68.1638 23.9065C69.3695 22.8276 70.8374 21.9826 72.5673 21.3716C74.3103 20.7606 76.2958 20.4551 78.5237 20.4551C79.4935 20.4551 80.4699 20.5136 81.4528 20.6306C82.4357 20.7476 83.3793 20.9166 84.2836 21.1376C85.201 21.3456 86.0594 21.5991 86.8588 21.8981C87.6583 22.1841 88.3529 22.5026 88.9426 22.8536L86.2494 27.2019C84.9782 26.617 83.7725 26.188 82.6323 25.915C81.5052 25.642 80.3585 25.5055 79.1921 25.5055C77.8554 25.5055 76.6562 25.681 75.5947 26.032C74.5331 26.37 73.6288 26.851 72.8818 27.4749C72.1479 28.0859 71.5844 28.8139 71.1912 29.6589C70.8112 30.4908 70.6211 31.4008 70.6211 32.3888C70.6211 33.3768 70.8243 34.2932 71.2305 35.1382C71.6499 35.9702 72.2331 36.6917 72.9801 37.3026C73.7402 37.9006 74.6511 38.3751 75.7126 38.7261C76.7873 39.0641 77.9799 39.2331 79.2904 39.2331C80.732 39.2331 82.0884 39.0316 83.3597 38.6286C84.644 38.2256 85.8366 37.6861 86.9375 37.0102L89.6307 41.3585C88.9361 41.7745 88.1825 42.1645 87.37 42.5285C86.5574 42.8795 85.6859 43.185 84.7554 43.445C83.838 43.705 82.8682 43.9064 81.846 44.0494C80.8369 44.2054 79.7884 44.2834 78.7007 44.2834C76.4858 44.2834 74.5004 43.9844 72.7442 43.3865C70.9881 42.7885 69.5006 41.963 68.2818 40.91C67.063 39.8441 66.1259 38.5896 65.4707 37.1466C64.8285 35.7037 64.5074 34.1307 64.5074 32.4278Z" fill="#131730"/>
<path d="M94.5397 17.7252C93.9631 17.7252 93.4389 17.6472 92.9671 17.4912C92.5084 17.3222 92.1152 17.1012 91.7876 16.8283C91.4599 16.5423 91.2044 16.2173 91.0209 15.8533C90.8505 15.4763 90.7653 15.0798 90.7653 14.6638C90.7653 14.2348 90.8505 13.8383 91.0209 13.4744C91.2044 13.0974 91.4599 12.7724 91.7876 12.4994C92.1152 12.2264 92.5084 12.0119 92.9671 11.8559C93.4389 11.6869 93.9631 11.6024 94.5397 11.6024C95.1295 11.6024 95.6537 11.6869 96.1124 11.8559C96.5842 12.0119 96.9839 12.2264 97.3115 12.4994C97.6392 12.7724 97.8882 13.0974 98.0585 13.4744C98.242 13.8383 98.3338 14.2348 98.3338 14.6638C98.3338 15.0798 98.242 15.4763 98.0585 15.8533C97.8882 16.2173 97.6392 16.5423 97.3115 16.8283C96.9839 17.1012 96.5842 17.3222 96.1124 17.4912C95.6537 17.6472 95.1295 17.7252 94.5397 17.7252ZM91.6303 20.8646H97.4491V43.8739H91.6303V20.8646Z" fill="#131730"/>
<path d="M99.3898 36.6202C99.3898 35.5152 99.6323 34.5077 100.117 33.5978C100.602 32.6878 101.329 31.9078 102.299 31.2578C103.269 30.5948 104.475 30.0879 105.916 29.7369C107.371 29.3729 109.062 29.1909 110.988 29.1909C112.417 29.1909 113.917 29.2949 115.49 29.5029C117.076 29.7109 118.707 30.0294 120.385 30.4583C120.319 29.7304 120.097 29.0609 119.716 28.4499C119.336 27.8259 118.806 27.2929 118.124 26.851C117.456 26.396 116.643 26.045 115.687 25.798C114.743 25.551 113.668 25.4275 112.463 25.4275C111.807 25.4275 111.086 25.4665 110.3 25.5445C109.514 25.6225 108.701 25.7395 107.863 25.8955C107.024 26.0515 106.192 26.2465 105.366 26.4805C104.553 26.7145 103.793 26.994 103.086 27.3189L101.316 22.5806C102.194 22.2686 103.131 21.9826 104.127 21.7226C105.137 21.4626 106.165 21.2416 107.214 21.0596C108.262 20.8646 109.311 20.7151 110.359 20.6111C111.408 20.5071 112.423 20.4551 113.406 20.4551C117.744 20.4551 120.968 21.5536 123.078 23.7505C125.188 25.9475 126.243 29.3144 126.243 33.8512V43.8739H120.424V41.7095C119.821 42.0605 119.159 42.392 118.439 42.704C117.731 43.016 116.958 43.289 116.119 43.523C115.28 43.757 114.376 43.9389 113.406 44.0689C112.449 44.2119 111.434 44.2834 110.359 44.2834C108.551 44.2834 106.958 44.0884 105.582 43.6985C104.219 43.3085 103.079 42.769 102.162 42.08C101.244 41.391 100.55 40.585 100.078 39.6621C99.6191 38.7261 99.3898 37.7121 99.3898 36.6202ZM105.523 36.4252C105.523 36.8022 105.621 37.1661 105.818 37.5171C106.015 37.8551 106.329 38.1606 106.762 38.4336C107.194 38.6936 107.745 38.9081 108.413 39.0771C109.094 39.2331 109.914 39.3111 110.87 39.3111C111.892 39.3111 112.882 39.2201 113.839 39.0381C114.795 38.8561 115.687 38.6156 116.512 38.3166C117.338 38.0176 118.085 37.6731 118.753 37.2831C119.422 36.8932 119.979 36.4902 120.424 36.0742V35.0602C119.533 34.8132 118.648 34.6052 117.77 34.4362C116.905 34.2672 116.073 34.1372 115.274 34.0462C114.487 33.9422 113.74 33.8707 113.033 33.8317C112.338 33.7927 111.729 33.7732 111.204 33.7732C110.117 33.7732 109.212 33.8447 108.492 33.9877C107.771 34.1307 107.188 34.3257 106.742 34.5727C106.296 34.8067 105.982 35.0862 105.798 35.4112C105.615 35.7362 105.523 36.0742 105.523 36.4252Z" fill="#131730"/>
<path d="M129.678 11.5244H135.497V43.8739H129.678V11.5244Z" fill="#131730"/>
<path d="M147.634 20.8646H153.453V22.8146C154.908 21.9306 156.323 21.3196 157.699 20.9816C159.089 20.6306 160.445 20.4551 161.769 20.4551C163.616 20.4551 165.314 20.7476 166.86 21.3326C168.407 21.9176 169.73 22.8016 170.831 23.9845C171.683 23.3346 172.522 22.7886 173.347 22.3466C174.173 21.8916 174.999 21.5276 175.824 21.2546C176.65 20.9686 177.489 20.7671 178.341 20.6501C179.192 20.5201 180.07 20.4551 180.975 20.4551C182.875 20.4551 184.598 20.7151 186.145 21.2351C187.691 21.7421 189.008 22.5026 190.096 23.5166C191.197 24.5305 192.042 25.798 192.632 27.3189C193.235 28.8269 193.536 30.5753 193.536 32.5643V43.8739H187.737V33.5003C187.737 32.2393 187.554 31.1148 187.187 30.1269C186.833 29.1259 186.328 28.2874 185.673 27.6114C185.031 26.9225 184.258 26.4025 183.353 26.0515C182.462 25.6875 181.479 25.5055 180.405 25.5055C179.815 25.5055 179.212 25.564 178.596 25.681C177.98 25.785 177.377 25.954 176.788 26.188C176.211 26.422 175.667 26.721 175.156 27.0849C174.645 27.4359 174.199 27.8519 173.819 28.3329V43.8739H168.02V33.5003C168.02 32.2393 167.836 31.1148 167.469 30.1269C167.116 29.1259 166.611 28.2874 165.956 27.6114C165.314 26.9225 164.534 26.4025 163.616 26.0515C162.712 25.6875 161.716 25.5055 160.628 25.5055C159.96 25.5055 159.285 25.577 158.604 25.72C157.935 25.85 157.287 26.0385 156.657 26.2855C156.041 26.5325 155.458 26.8315 154.908 27.1824C154.371 27.5334 153.886 27.9299 153.453 28.3719V43.8739H147.634V20.8646Z" fill="#131730"/>
<path d="M195.339 36.6202C195.339 35.5152 195.582 34.5077 196.067 33.5978C196.552 32.6878 197.279 31.9078 198.249 31.2578C199.219 30.5948 200.424 30.0879 201.866 29.7369C203.321 29.3729 205.011 29.1909 206.938 29.1909C208.366 29.1909 209.867 29.2949 211.44 29.5029C213.025 29.7109 214.657 30.0294 216.334 30.4583C216.269 29.7304 216.046 29.0609 215.666 28.4499C215.286 27.8259 214.755 27.2929 214.074 26.851C213.405 26.396 212.593 26.045 211.636 25.798C210.693 25.551 209.618 25.4275 208.412 25.4275C207.757 25.4275 207.036 25.4665 206.25 25.5445C205.463 25.6225 204.651 25.7395 203.812 25.8955C202.973 26.0515 202.141 26.2465 201.316 26.4805C200.503 26.7145 199.743 26.994 199.035 27.3189L197.266 22.5806C198.144 22.2686 199.081 21.9826 200.077 21.7226C201.086 21.4626 202.115 21.2416 203.163 21.0596C204.212 20.8646 205.26 20.7151 206.309 20.6111C207.357 20.5071 208.373 20.4551 209.356 20.4551C213.694 20.4551 216.918 21.5536 219.028 23.7505C221.138 25.9475 222.193 29.3144 222.193 33.8512V43.8739H216.374V41.7095C215.771 42.0605 215.109 42.392 214.388 42.704C213.681 43.016 212.907 43.289 212.069 43.523C211.23 43.757 210.326 43.9389 209.356 44.0689C208.399 44.2119 207.383 44.2834 206.309 44.2834C204.5 44.2834 202.908 44.0884 201.532 43.6985C200.169 43.3085 199.029 42.769 198.111 42.08C197.194 41.391 196.499 40.585 196.027 39.6621C195.569 38.7261 195.339 37.7121 195.339 36.6202ZM201.473 36.4252C201.473 36.8022 201.571 37.1661 201.768 37.5171C201.964 37.8551 202.279 38.1606 202.711 38.4336C203.144 38.6936 203.694 38.9081 204.363 39.0771C205.044 39.2331 205.863 39.3111 206.82 39.3111C207.842 39.3111 208.832 39.2201 209.788 39.0381C210.745 38.8561 211.636 38.6156 212.462 38.3166C213.287 38.0176 214.034 37.6731 214.703 37.2831C215.371 36.8932 215.928 36.4902 216.374 36.0742V35.0602C215.483 34.8132 214.598 34.6052 213.72 34.4362C212.855 34.2672 212.023 34.1372 211.223 34.0462C210.437 33.9422 209.69 33.8707 208.982 33.8317C208.288 33.7927 207.678 33.7732 207.154 33.7732C206.066 33.7732 205.162 33.8447 204.441 33.9877C203.72 34.1307 203.137 34.3257 202.692 34.5727C202.246 34.8067 201.931 35.0862 201.748 35.4112C201.565 35.7362 201.473 36.0742 201.473 36.4252Z" fill="#131730"/>
<path d="M231.132 53.2727H225.313V20.8646H231.132V23.0291C231.643 22.6781 232.246 22.3466 232.94 22.0346C233.635 21.7226 234.382 21.4496 235.181 21.2156C235.981 20.9816 236.806 20.7996 237.658 20.6696C238.51 20.5266 239.362 20.4551 240.214 20.4551C242.18 20.4551 243.982 20.7411 245.62 21.3131C247.271 21.8851 248.686 22.6911 249.866 23.731C251.045 24.771 251.963 26.019 252.618 27.4749C253.286 28.9179 253.621 30.5168 253.621 32.2718C253.621 34.1047 253.273 35.7622 252.579 37.2441C251.884 38.7131 250.921 39.9741 249.689 41.027C248.47 42.067 247.015 42.873 245.325 43.445C243.647 44.0039 241.826 44.2834 239.86 44.2834C239.021 44.2834 238.189 44.2314 237.363 44.1274C236.551 44.0234 235.764 43.8804 235.004 43.6985C234.257 43.5165 233.55 43.302 232.881 43.055C232.226 42.795 231.643 42.5155 231.132 42.2165V53.2727ZM231.132 36.6397C231.721 37.1076 232.344 37.5041 232.999 37.8291C233.654 38.1541 234.323 38.4206 235.004 38.6286C235.686 38.8366 236.374 38.9926 237.068 39.0966C237.763 39.1876 238.438 39.2331 239.093 39.2331C240.43 39.2331 241.616 39.0576 242.651 38.7066C243.7 38.3426 244.578 37.8486 245.286 37.2246C246.006 36.6007 246.557 35.8662 246.937 35.0212C247.317 34.1762 247.507 33.2598 247.507 32.2718C247.507 31.3488 247.317 30.4778 246.937 29.6589C246.57 28.8399 246.033 28.1249 245.325 27.5139C244.63 26.89 243.785 26.4025 242.789 26.0515C241.806 25.6875 240.699 25.5055 239.467 25.5055C238.68 25.5055 237.894 25.5835 237.108 25.7395C236.321 25.8825 235.561 26.0905 234.827 26.3635C234.107 26.6365 233.425 26.968 232.783 27.3579C232.154 27.7479 231.603 28.1834 231.132 28.6644V36.6397Z" fill="#131730"/>
</svg>
