<svg width="189" height="150" viewBox="0 0 189 150" fill="none" xmlns="http://www.w3.org/2000/svg">
<path d="M17.0846 74.9359C13.8838 74.9359 11.0156 74.417 8.47995 73.3792C5.94428 72.3415 3.90743 70.8056 2.3694 68.7715C0.872936 66.7375 0.0831368 64.2884 0 61.4242H11.3482C11.5144 63.0431 12.0756 64.2884 13.0317 65.1601C13.9878 65.9903 15.2348 66.4054 16.7728 66.4054C18.3524 66.4054 19.5995 66.0526 20.514 65.3469C21.4285 64.5997 21.8857 63.5827 21.8857 62.2959C21.8857 61.2166 21.5116 60.3241 20.7634 59.6185C20.0567 58.9128 19.163 58.3316 18.0822 57.875C17.043 57.4184 15.5466 56.8995 13.5929 56.3184C10.7662 55.4466 8.45916 54.5749 6.67172 53.7032C4.88428 52.8315 3.34625 51.5446 2.05763 49.8427C0.769015 48.1408 0.124705 45.9199 0.124705 43.1802C0.124705 39.1122 1.60038 35.9366 4.55174 33.6536C7.50309 31.329 11.3482 30.1667 16.087 30.1667C20.9089 30.1667 24.7955 31.329 27.7469 33.6536C30.6982 35.9366 32.2778 39.133 32.4857 43.2425H20.9505C20.8673 41.8312 20.3477 40.7311 19.3916 39.9424C18.4356 39.1122 17.2093 38.6971 15.7128 38.6971C14.4242 38.6971 13.385 39.0499 12.5952 39.7556C11.8054 40.4198 11.4105 41.3953 11.4105 42.6821C11.4105 44.0935 12.0756 45.1935 13.4058 45.9822C14.736 46.7709 16.8144 47.6219 19.6411 48.5351C22.4677 49.4899 24.754 50.4031 26.4998 51.2748C28.2873 52.1465 29.8253 53.4126 31.1139 55.073C32.4025 56.7335 33.0469 58.8713 33.0469 61.4864C33.0469 63.9771 32.4025 66.2394 31.1139 68.2734C29.8669 70.3074 28.0379 71.9264 25.6269 73.1302C23.2159 74.334 20.3685 74.9359 17.0846 74.9359Z" fill="#131730"/>
<path d="M55.446 74.9981C52.0374 74.9981 48.9614 74.2717 46.2179 72.8188C43.5159 71.366 41.3751 69.2904 39.7955 66.5922C38.2575 63.894 37.4885 60.7392 37.4885 57.1278C37.4885 53.5579 38.2783 50.4239 39.8579 47.7257C41.4375 44.986 43.5991 42.8897 46.3426 41.4368C49.0861 39.9839 52.1621 39.2575 55.5707 39.2575C58.9793 39.2575 62.0554 39.9839 64.7989 41.4368C67.5424 42.8897 69.704 44.986 71.2836 47.7257C72.8632 50.4239 73.653 53.5579 73.653 57.1278C73.653 60.6977 72.8424 63.8525 71.2212 66.5922C69.6416 69.2904 67.4593 71.366 64.6742 72.8188C61.9307 74.2717 58.8546 74.9981 55.446 74.9981ZM55.446 65.7828C57.4829 65.7828 59.208 65.0356 60.6213 63.5412C62.0762 62.0468 62.8036 59.909 62.8036 57.1278C62.8036 54.3466 62.097 52.2088 60.6836 50.7144C59.3119 49.22 57.6076 48.4729 55.5707 48.4729C53.4923 48.4729 51.7672 49.22 50.3955 50.7144C49.0237 52.1673 48.3378 54.3051 48.3378 57.1278C48.3378 59.909 49.0029 62.0468 50.3331 63.5412C51.7049 65.0356 53.4092 65.7828 55.446 65.7828Z" fill="#131730"/>
<path d="M77.1895 57.1278C77.1895 53.5164 77.917 50.3616 79.3719 47.6634C80.8683 44.9652 82.926 42.8897 85.5448 41.4368C88.2052 39.9839 91.2396 39.2575 94.6483 39.2575C99.0129 39.2575 102.65 40.399 105.56 42.6821C108.511 44.9652 110.444 48.1823 111.359 52.3333H100.011C99.0545 49.6767 97.2047 48.3483 94.4612 48.3483C92.5075 48.3483 90.9487 49.1163 89.7848 50.6522C88.6208 52.1465 88.0389 54.3051 88.0389 57.1278C88.0389 59.9505 88.6208 62.1298 89.7848 63.6657C90.9487 65.1601 92.5075 65.9073 94.4612 65.9073C97.2047 65.9073 99.0545 64.579 100.011 61.9223H111.359C110.444 65.9903 108.511 69.1867 105.56 71.5112C102.609 73.8358 98.9714 74.9981 94.6483 74.9981C91.2396 74.9981 88.2052 74.2717 85.5448 72.8188C82.926 71.366 80.8683 69.2904 79.3719 66.5922C77.917 63.894 77.1895 60.7392 77.1895 57.1278Z" fill="#131730"/>
<path d="M122.424 36.1442C120.554 36.1442 119.016 35.6046 117.81 34.5253C116.646 33.4045 116.064 32.0346 116.064 30.4157C116.064 28.7553 116.646 27.3855 117.81 26.3062C119.016 25.1854 120.554 24.625 122.424 24.625C124.253 24.625 125.75 25.1854 126.914 26.3062C128.119 27.3855 128.722 28.7553 128.722 30.4157C128.722 32.0346 128.119 33.4045 126.914 34.5253C125.75 35.6046 124.253 36.1442 122.424 36.1442ZM127.724 39.7556V74.5H117.062V39.7556H127.724Z" fill="#131730"/>
<path d="M133.331 57.1901C133.331 60.76 133.996 63.894 135.326 66.5922C136.698 69.2904 138.548 71.366 140.876 72.8188C143.204 74.2717 145.802 74.9981 148.67 74.9981C151.122 74.9981 153.263 74.5 155.092 73.5038C156.963 72.5075 158.397 71.1999 159.395 69.581V74.5H170.057V39.7556H159.395V44.6746C158.355 43.0557 156.9 41.7481 155.03 40.7519C153.201 39.7556 151.06 39.2575 148.608 39.2575C145.781 39.2575 143.204 39.9839 140.876 41.4368C138.548 42.9312 136.698 45.0275 135.326 47.7257C133.996 50.4654 133.331 53.6202 133.331 57.1901ZM159.395 57.1278C159.395 59.7845 158.646 61.8808 157.15 63.4167C155.695 64.9526 153.908 65.7205 151.788 65.7205C149.668 65.7205 147.859 64.9526 146.363 63.4167C144.908 61.9223 144.181 59.8468 144.181 57.1901C144.181 54.5334 144.908 52.4164 146.363 50.839C147.859 49.3031 149.668 48.5351 151.788 48.5351C153.908 48.5351 155.695 49.3031 157.15 50.839C158.646 52.3749 159.395 54.4711 159.395 57.1278Z" fill="#131730"/>
<path d="M188.433 28.4232V74.5H177.771V28.4232H188.433Z" fill="#131730"/>
<mask id="path-2-outside-1_1151_509" maskUnits="userSpaceOnUse" x="20.6416" y="79.9688" width="147" height="54" fill="black">
<rect fill="white" x="20.6416" y="79.9688" width="147" height="54"/>
<path d="M65.9525 81.0934C70.2674 81.0934 73.6903 82.4025 76.2212 85.0208C78.7935 87.639 80.0797 91.2754 80.0797 95.93V116.252H69.4998V97.3638C69.4998 95.1196 68.8982 93.3949 67.695 92.1897C66.5333 90.9429 64.9152 90.3195 62.8408 90.3195C60.7663 90.3195 59.1274 90.9429 57.9242 92.1897C56.7625 93.3949 56.1817 95.1196 56.1817 97.3638V116.252H45.6018V97.3638C45.6018 95.1196 45.0002 93.3949 43.797 92.1897C42.6353 90.9429 41.0172 90.3195 38.9428 90.3195C36.8683 90.3195 35.2294 90.9429 34.0262 92.1897C32.8645 93.3949 32.2837 95.1196 32.2837 97.3638V116.252H21.6416V81.4675H32.2837V85.8312C33.3624 84.3766 34.7731 83.2337 36.5156 82.4025C38.2582 81.5298 40.2289 81.0934 42.4279 81.0934C45.0417 81.0934 47.3651 81.6545 49.3981 82.7766C51.4726 83.8987 53.0907 85.4987 54.2524 87.5766C55.4556 85.6649 57.0944 84.1065 59.1689 82.9012C61.2434 81.696 63.5046 81.0934 65.9525 81.0934Z"/>
<path d="M85.4065 98.7976C85.4065 95.2235 86.0704 92.0858 87.3981 89.3845C88.7672 86.6831 90.6135 84.6052 92.9369 83.1506C95.2603 81.696 97.8534 80.9688 100.716 80.9688C103.164 80.9688 105.301 81.4675 107.126 82.4649C108.993 83.4623 110.425 84.7714 111.421 86.3922V81.4675H122.063V116.252H111.421V111.328C110.383 112.948 108.931 114.258 107.064 115.255C105.239 116.252 103.102 116.751 100.654 116.751C97.8327 116.751 95.2603 116.024 92.9369 114.569C90.6135 113.073 88.7672 110.974 87.3981 108.273C86.0704 105.53 85.4065 102.372 85.4065 98.7976ZM111.421 98.8599C111.421 96.2001 110.674 94.1014 109.18 92.5637C107.728 91.026 105.944 90.2572 103.828 90.2572C101.712 90.2572 99.9072 91.026 98.4135 92.5637C96.9614 94.0598 96.2353 96.1378 96.2353 98.7976C96.2353 101.457 96.9614 103.577 98.4135 105.156C99.9072 106.694 101.712 107.463 103.828 107.463C105.944 107.463 107.728 106.694 109.18 105.156C110.674 103.618 111.421 101.52 111.421 98.8599Z"/>
<path d="M140.404 86.3922C141.441 84.7714 142.872 83.4623 144.698 82.4649C146.523 81.4675 148.66 80.9688 151.108 80.9688C153.971 80.9688 156.564 81.696 158.887 83.1506C161.211 84.6052 163.036 86.6831 164.364 89.3845C165.733 92.0858 166.418 95.2235 166.418 98.7976C166.418 102.372 165.733 105.53 164.364 108.273C163.036 110.974 161.211 113.073 158.887 114.569C156.564 116.024 153.971 116.751 151.108 116.751C148.702 116.751 146.565 116.252 144.698 115.255C142.872 114.258 141.441 112.969 140.404 111.39V132.834H129.762V81.4675H140.404V86.3922ZM155.589 98.7976C155.589 96.1378 154.842 94.0598 153.349 92.5637C151.896 91.026 150.092 90.2572 147.934 90.2572C145.818 90.2572 144.013 91.026 142.52 92.5637C141.068 94.1014 140.342 96.2001 140.342 98.8599C140.342 101.52 141.068 103.618 142.52 105.156C144.013 106.694 145.818 107.463 147.934 107.463C150.05 107.463 151.855 106.694 153.349 105.156C154.842 103.577 155.589 101.457 155.589 98.7976Z"/>
</mask>
<path d="M76.2212 85.0208L75.5021 85.7158L75.5078 85.7216L76.2212 85.0208ZM80.0797 116.252V117.252H81.0797V116.252H80.0797ZM69.4998 116.252H68.4998V117.252H69.4998V116.252ZM67.695 92.1897L66.9634 92.8714L66.9752 92.884L66.9873 92.8962L67.695 92.1897ZM57.9242 92.1897L57.2047 91.4953L57.2043 91.4957L57.9242 92.1897ZM56.1817 116.252V117.252H57.1817V116.252H56.1817ZM45.6018 116.252H44.6018V117.252H45.6018V116.252ZM43.797 92.1897L43.0654 92.8714L43.0772 92.884L43.0893 92.8962L43.797 92.1897ZM34.0262 92.1897L33.3067 91.4953L33.3063 91.4957L34.0262 92.1897ZM32.2837 116.252V117.252H33.2837V116.252H32.2837ZM21.6416 116.252H20.6416V117.252H21.6416V116.252ZM21.6416 81.4675V80.4675H20.6416V81.4675H21.6416ZM32.2837 81.4675H33.2837V80.4675H32.2837V81.4675ZM32.2837 85.8312H31.2837V88.8583L33.0869 86.4268L32.2837 85.8312ZM36.5156 82.4025L36.9461 83.3051L36.9548 83.301L36.9634 83.2967L36.5156 82.4025ZM49.3981 82.7766L48.9149 83.6521L48.9224 83.6561L49.3981 82.7766ZM54.2524 87.5766L53.3796 88.0646L54.2015 89.5349L55.0987 88.1093L54.2524 87.5766ZM87.3981 89.3845L86.506 88.9323L86.5006 88.9434L87.3981 89.3845ZM92.9369 83.1506L93.4676 83.9982V83.9982L92.9369 83.1506ZM107.126 82.4649L106.647 83.3425L106.655 83.3469L107.126 82.4649ZM111.421 86.3922L110.568 86.9157L112.421 89.9303V86.3922H111.421ZM111.421 81.4675V80.4675H110.421V81.4675H111.421ZM122.063 81.4675H123.063V80.4675H122.063V81.4675ZM122.063 116.252V117.252H123.063V116.252H122.063ZM111.421 116.252H110.421V117.252H111.421V116.252ZM111.421 111.328H112.421V107.91L110.578 110.789L111.421 111.328ZM107.064 115.255L106.593 114.373L106.585 114.377L107.064 115.255ZM92.9369 114.569L92.3955 115.41L92.4063 115.417L92.9369 114.569ZM87.3981 108.273L86.498 108.709L86.5019 108.717L86.5061 108.725L87.3981 108.273ZM109.18 92.5637L108.453 93.2504L108.463 93.2605L109.18 92.5637ZM98.4135 92.5637L97.6962 91.867L97.696 91.8672L98.4135 92.5637ZM98.4135 105.156L97.6774 105.833L97.6867 105.843L97.6962 105.853L98.4135 105.156ZM109.18 105.156L108.463 104.459L108.453 104.47L109.18 105.156ZM140.404 86.3922H139.404V89.81L141.246 86.9312L140.404 86.3922ZM144.698 82.4649L144.218 81.5873V81.5873L144.698 82.4649ZM158.887 83.1506L158.357 83.9982V83.9982L158.887 83.1506ZM164.364 89.3845L163.466 89.8256L163.472 89.8365L164.364 89.3845ZM164.364 108.273L163.469 107.826L163.467 107.832L164.364 108.273ZM158.887 114.569L159.418 115.417L159.429 115.41L158.887 114.569ZM144.698 115.255L144.218 116.133L144.227 116.137L144.698 115.255ZM140.404 111.39L141.24 110.841L139.404 108.046V111.39H140.404ZM140.404 132.834V133.834H141.404V132.834H140.404ZM129.762 132.834H128.762V133.834H129.762V132.834ZM129.762 81.4675V80.4675H128.762V81.4675H129.762ZM140.404 81.4675H141.404V80.4675H140.404V81.4675ZM153.349 92.5637L152.621 93.2503L152.631 93.2604L152.641 93.2702L153.349 92.5637ZM142.52 92.5637L141.802 91.8669L141.793 91.8771L142.52 92.5637ZM142.52 105.156L141.793 105.843L141.802 105.853L142.52 105.156ZM153.349 105.156L154.066 105.853L154.075 105.843L153.349 105.156ZM65.9525 82.0934C70.0505 82.0934 73.1943 83.3283 75.5022 85.7158L76.9402 84.3257C74.1863 81.4768 70.4843 80.0934 65.9525 80.0934V82.0934ZM75.5078 85.7216C77.8506 88.1061 79.0797 91.4639 79.0797 95.93H81.0797C81.0797 91.0869 79.7364 87.1718 76.9345 84.3199L75.5078 85.7216ZM79.0797 95.93V116.252H81.0797V95.93H79.0797ZM80.0797 115.252H69.4998V117.252H80.0797V115.252ZM70.4998 116.252V97.3638H68.4998V116.252H70.4998ZM70.4998 97.3638C70.4998 94.942 69.8469 92.9297 68.4027 91.4832L66.9873 92.8962C67.9496 93.8601 68.4998 95.2972 68.4998 97.3638H70.4998ZM68.4267 91.508C67.0356 90.0151 65.1277 89.3195 62.8408 89.3195V91.3195C64.7028 91.3195 66.031 91.8707 66.9634 92.8714L68.4267 91.508ZM62.8408 89.3195C60.5526 89.3195 58.6329 90.0153 57.2047 91.4953L58.6438 92.8841C59.6219 91.8706 60.98 91.3195 62.8408 91.3195V89.3195ZM57.2043 91.4957C55.8087 92.9435 55.1817 94.9512 55.1817 97.3638H57.1817C57.1817 95.288 57.7164 93.8462 58.6442 92.8837L57.2043 91.4957ZM55.1817 97.3638V116.252H57.1817V97.3638H55.1817ZM56.1817 115.252H45.6018V117.252H56.1817V115.252ZM46.6018 116.252V97.3638H44.6018V116.252H46.6018ZM46.6018 97.3638C46.6018 94.942 45.9489 92.9297 44.5047 91.4832L43.0893 92.8962C44.0516 93.8601 44.6018 95.2972 44.6018 97.3638H46.6018ZM44.5287 91.508C43.1376 90.0151 41.2297 89.3195 38.9428 89.3195V91.3195C40.8047 91.3195 42.133 91.8707 43.0654 92.8714L44.5287 91.508ZM38.9428 89.3195C36.6546 89.3195 34.7349 90.0153 33.3067 91.4953L34.7458 92.8841C35.7239 91.8705 37.082 91.3195 38.9428 91.3195V89.3195ZM33.3063 91.4957C31.9107 92.9435 31.2837 94.9512 31.2837 97.3638H33.2837C33.2837 95.288 33.8184 93.8462 34.7462 92.8837L33.3063 91.4957ZM31.2837 97.3638V116.252H33.2837V97.3638H31.2837ZM32.2837 115.252H21.6416V117.252H32.2837V115.252ZM22.6416 116.252V81.4675H20.6416V116.252H22.6416ZM21.6416 82.4675H32.2837V80.4675H21.6416V82.4675ZM31.2837 81.4675V85.8312H33.2837V81.4675H31.2837ZM33.0869 86.4268C34.0619 85.1121 35.341 84.0708 36.9461 83.3051L36.0851 81.5C34.2051 82.3967 32.6629 83.6411 31.4805 85.2355L33.0869 86.4268ZM36.9634 83.2967C38.5501 82.502 40.3643 82.0934 42.4279 82.0934V80.0934C40.0936 80.0934 37.9663 80.5576 36.0678 81.5084L36.9634 83.2967ZM42.4279 82.0934C44.8943 82.0934 47.0477 82.6215 48.9149 83.6521L49.8814 81.9011C47.6826 80.6875 45.1892 80.0934 42.4279 80.0934V82.0934ZM48.9224 83.6561C50.8284 84.6871 52.3095 86.1506 53.3796 88.0646L55.1253 87.0887C53.8719 84.8468 52.1168 83.1102 49.8739 81.897L48.9224 83.6561ZM55.0987 88.1093C56.2105 86.3429 57.7277 84.8951 59.6713 83.7659L58.6666 82.0366C56.4612 83.3178 54.7008 84.9869 53.4061 87.044L55.0987 88.1093ZM59.6713 83.7659C61.59 82.6512 63.6773 82.0934 65.9525 82.0934V80.0934C63.3319 80.0934 60.8969 80.7409 58.6666 82.0366L59.6713 83.7659ZM86.4065 98.7976C86.4065 95.348 87.0468 92.3662 88.2955 89.8255L86.5006 88.9434C85.094 91.8054 84.4066 95.099 84.4066 98.7976H86.4065ZM88.29 89.8365C89.5858 87.2799 91.3141 85.3463 93.4676 83.9982L92.4063 82.303C89.9129 83.864 87.9486 86.0863 86.5061 88.9324L88.29 89.8365ZM93.4676 83.9982C95.6246 82.6478 98.0324 81.9688 100.716 81.9688V79.9688C97.6745 79.9688 94.896 80.7443 92.4063 82.303L93.4676 83.9982ZM100.716 81.9688C103.026 81.9688 104.992 82.4385 106.647 83.3424L107.606 81.5873C105.609 80.4964 103.302 79.9688 100.716 79.9688V81.9688ZM106.655 83.3469C108.384 84.2704 109.676 85.4626 110.568 86.9157L112.273 85.8687C111.174 84.0802 109.603 82.6542 107.598 81.5828L106.655 83.3469ZM112.421 86.3922V81.4675H110.421V86.3922H112.421ZM111.421 82.4675H122.063V80.4675H111.421V82.4675ZM121.063 81.4675V116.252H123.063V81.4675H121.063ZM122.063 115.252H111.421V117.252H122.063V115.252ZM112.421 116.252V111.328H110.421V116.252H112.421ZM110.578 110.789C109.642 112.251 108.324 113.448 106.593 114.373L107.535 116.137C109.538 115.067 111.124 113.646 112.263 111.867L110.578 110.789ZM106.585 114.377C104.93 115.281 102.964 115.751 100.654 115.751V117.751C103.24 117.751 105.547 117.223 107.544 116.133L106.585 114.377ZM100.654 115.751C98.0146 115.751 95.6271 115.074 93.4676 113.722L92.4063 115.417C94.8936 116.974 97.6508 117.751 100.654 117.751V115.751ZM93.4783 113.728C91.3183 112.338 89.5868 110.38 88.29 107.821L86.5061 108.725C87.9476 111.569 89.9087 113.809 92.3955 115.41L93.4783 113.728ZM88.2982 107.837C87.0467 105.252 86.4065 102.247 86.4065 98.7976H84.4066C84.4066 102.497 85.0941 105.808 86.498 108.709L88.2982 107.837ZM112.421 98.8599C112.421 96.006 111.614 93.6338 109.897 91.867L108.463 93.2605C109.734 94.569 110.421 96.3943 110.421 98.8599H112.421ZM109.907 91.8771C108.266 90.1393 106.219 89.2572 103.828 89.2572V91.2572C105.669 91.2572 107.19 91.9128 108.453 93.2503L109.907 91.8771ZM103.828 89.2572C101.438 89.2572 99.3754 90.1383 97.6962 91.867L99.1309 93.2605C100.439 91.9138 101.986 91.2572 103.828 91.2572V89.2572ZM97.696 91.8672C96.0165 93.5976 95.2353 95.9526 95.2353 98.7976H97.2353C97.2353 96.323 97.9063 94.5221 99.1311 93.2602L97.696 91.8672ZM95.2353 98.7976C95.2353 101.645 96.0174 104.028 97.6774 105.833L99.1497 104.479C97.9055 103.126 97.2353 101.269 97.2353 98.7976H95.2353ZM97.6962 105.853C99.3754 107.582 101.438 108.463 103.828 108.463V106.463C101.986 106.463 100.439 105.806 99.1309 104.459L97.6962 105.853ZM103.828 108.463C106.219 108.463 108.266 107.581 109.907 105.843L108.453 104.47C107.19 105.807 105.669 106.463 103.828 106.463V108.463ZM109.897 105.853C111.614 104.086 112.421 101.714 112.421 98.8599H110.421C110.421 101.326 109.734 103.151 108.463 104.459L109.897 105.853ZM141.246 86.9312C142.185 85.4633 143.487 84.266 145.177 83.3424L144.218 81.5873C142.258 82.6586 140.697 84.0795 139.561 85.8532L141.246 86.9312ZM145.177 83.3424C146.832 82.4385 148.798 81.9688 151.108 81.9688V79.9688C148.522 79.9688 146.215 80.4964 144.218 81.5873L145.177 83.3424ZM151.108 81.9688C153.792 81.9688 156.2 82.6478 158.357 83.9982L159.418 82.303C156.928 80.7443 154.15 79.9688 151.108 79.9688V81.9688ZM158.357 83.9982C160.507 85.3445 162.213 87.2743 163.467 89.8255L165.261 88.9434C163.86 86.092 161.914 83.8659 159.418 82.303L158.357 83.9982ZM163.472 89.8365C164.758 92.3746 165.418 95.3524 165.418 98.7976H167.418C167.418 95.0946 166.708 91.797 165.256 88.9324L163.472 89.8365ZM165.418 98.7976C165.418 102.242 164.759 105.243 163.469 107.826L165.259 108.72C166.708 105.817 167.418 102.501 167.418 98.7976H165.418ZM163.467 107.832C162.212 110.385 160.503 112.339 158.346 113.728L159.429 115.41C161.918 113.807 163.861 111.564 165.261 108.714L163.467 107.832ZM158.357 113.722C156.2 115.072 153.792 115.751 151.108 115.751V117.751C154.15 117.751 156.928 116.976 159.418 115.417L158.357 113.722ZM151.108 115.751C148.843 115.751 146.872 115.283 145.169 114.373L144.227 116.137C146.258 117.222 148.56 117.751 151.108 117.751V115.751ZM145.177 114.377C143.481 113.451 142.178 112.27 141.24 110.841L139.568 111.939C140.704 113.669 142.264 115.065 144.218 116.133L145.177 114.377ZM139.404 111.39V132.834H141.404V111.39H139.404ZM140.404 131.834H129.762V133.834H140.404V131.834ZM130.762 132.834V81.4675H128.762V132.834H130.762ZM129.762 82.4675H140.404V80.4675H129.762V82.4675ZM139.404 81.4675V86.3922H141.404V81.4675H139.404ZM156.589 98.7976C156.589 95.9449 155.782 93.5863 154.056 91.8572L152.641 93.2702C153.902 94.5334 154.589 96.3307 154.589 98.7976H156.589ZM154.076 91.8771C152.43 90.1349 150.36 89.2572 147.934 89.2572V91.2572C149.823 91.2572 151.362 91.9172 152.621 93.2503L154.076 91.8771ZM147.934 89.2572C145.544 89.2572 143.482 90.1383 141.802 91.867L143.237 93.2605C144.545 91.9138 146.092 91.2572 147.934 91.2572V89.2572ZM141.793 91.8771C140.123 93.645 139.342 96.0136 139.342 98.8599H141.342C141.342 96.3867 142.012 94.5578 143.247 93.2503L141.793 91.8771ZM139.342 98.8599C139.342 101.706 140.123 104.075 141.793 105.843L143.247 104.47C142.012 103.162 141.342 101.333 141.342 98.8599H139.342ZM141.802 105.853C143.482 107.582 145.544 108.463 147.934 108.463V106.463C146.092 106.463 144.545 105.806 143.237 104.459L141.802 105.853ZM147.934 108.463C150.324 108.463 152.387 107.582 154.066 105.853L152.631 104.459C151.323 105.806 149.776 106.463 147.934 106.463V108.463ZM154.075 105.843C155.782 104.039 156.589 101.653 156.589 98.7976H154.589C154.589 101.262 153.903 103.115 152.622 104.469L154.075 105.843Z" fill="#131730" mask="url(#path-2-outside-1_1151_509)"/>
<path fill-rule="evenodd" clip-rule="evenodd" d="M94.0305 149C108.235 149 121.505 144.998 132.773 138.06H134.649C122.943 145.615 108.999 150 94.0305 150C69.8976 150 48.427 138.602 34.7082 120.896H35.9784C49.5322 138.016 70.4986 149 94.0305 149ZM34.274 31.3433C47.7365 12.9474 69.4882 1 94.0305 1C120.195 1 143.188 14.5792 156.347 35.0746H157.532C144.255 14.0014 120.778 0 94.0305 0C68.8952 0 46.6478 12.3646 33.0391 31.3433H34.274Z" fill="#131730"/>
</svg>
