<svg width="254" height="42" viewBox="0 0 254 42" fill="none" xmlns="http://www.w3.org/2000/svg">
<path d="M3.32225 23.2823C4.43621 23.9063 5.56329 24.4718 6.70347 24.9788C7.85675 25.4727 9.04935 25.8952 10.2813 26.2462C11.5132 26.5842 12.8041 26.8442 14.1539 27.0262C15.5169 27.2082 16.9651 27.2992 18.4984 27.2992C20.3463 27.2992 21.919 27.1822 23.2164 26.9482C24.5138 26.7012 25.5688 26.3697 26.3814 25.9537C27.207 25.5247 27.8033 25.0178 28.1703 24.4328C28.5503 23.8478 28.7404 23.2108 28.7404 22.5218C28.7404 21.4169 28.2751 20.5459 27.3446 19.9089C26.4141 19.2589 24.9791 18.9339 23.0395 18.9339C22.1876 18.9339 21.2899 18.9924 20.3463 19.1094C19.4027 19.2134 18.446 19.3304 17.4762 19.4604C16.5195 19.5904 15.5693 19.7139 14.6257 19.8309C13.6953 19.9349 12.8172 19.9869 11.9915 19.9869C10.6155 19.9869 9.2918 19.8114 8.02057 19.4604C6.76244 19.1094 5.64192 18.5829 4.65901 17.881C3.6892 17.179 2.91598 16.3015 2.33933 15.2485C1.76269 14.1956 1.47437 12.9671 1.47437 11.5632C1.47437 10.7312 1.58577 9.9057 1.80856 9.08673C2.04446 8.26775 2.41141 7.48778 2.90942 6.7468C3.42054 5.99282 4.07581 5.29734 4.87525 4.66036C5.67468 4.01038 6.63794 3.4514 7.76501 2.98341C8.90519 2.51542 10.2157 2.15144 11.6967 1.89144C13.1907 1.61845 14.8879 1.48196 16.7882 1.48196C18.1642 1.48196 19.5469 1.55995 20.936 1.71595C22.3252 1.85894 23.6751 2.06694 24.9856 2.33993C26.3093 2.61292 27.5805 2.94441 28.7994 3.3344C30.0182 3.71139 31.1518 4.13388 32.2002 4.60186L29.4677 9.59371C28.6028 9.21672 27.6723 8.87223 26.6763 8.56024C25.6802 8.23525 24.6384 7.95576 23.5506 7.72177C22.4628 7.48778 21.3358 7.30578 20.1694 7.17579C19.0161 7.03279 17.8366 6.96129 16.6309 6.96129C14.9141 6.96129 13.4987 7.08479 12.3847 7.33178C11.2838 7.57877 10.4058 7.89726 9.7505 8.28725C9.09522 8.66424 8.63653 9.09323 8.37442 9.57421C8.12541 10.0422 8.00091 10.5102 8.00091 10.9782C8.00091 11.8881 8.41374 12.6356 9.23938 13.2206C10.065 13.7926 11.3232 14.0786 13.0138 14.0786C13.6953 14.0786 14.475 14.0331 15.3531 13.9421C16.2443 13.8381 17.1748 13.7276 18.1446 13.6106C19.1275 13.4936 20.1235 13.3896 21.1326 13.2986C22.1549 13.1946 23.1443 13.1426 24.101 13.1426C25.9096 13.1426 27.5085 13.3441 28.8976 13.7471C30.2999 14.1501 31.4729 14.7286 32.4165 15.4825C33.3601 16.2235 34.0743 17.127 34.5592 18.193C35.0441 19.2459 35.2866 20.4289 35.2866 21.7418C35.2866 23.4968 34.8738 25.0633 34.0481 26.4412C33.2356 27.8062 32.0692 28.9631 30.5489 29.9121C29.0418 30.8481 27.2201 31.5631 25.0839 32.057C22.9477 32.538 20.5691 32.7785 17.948 32.7785C16.2181 32.7785 14.5275 32.668 12.8762 32.447C11.2249 32.239 9.6391 31.94 8.11886 31.5501C6.61173 31.1471 5.17012 30.6726 3.79404 30.1266C2.43107 29.5676 1.16639 28.9566 0 28.2937L3.32225 23.2823Z" fill="#131730"/>
<path d="M35.5956 20.8449C35.5956 19.1939 35.9298 17.647 36.5982 16.204C37.2797 14.7611 38.2429 13.5001 39.4879 12.4211C40.7461 11.3422 42.2598 10.4907 44.029 9.8667C45.8113 9.24272 47.8099 8.93073 50.0248 8.93073C52.2396 8.93073 54.2316 9.24272 56.0009 9.8667C57.7832 10.4907 59.2969 11.3422 60.5419 12.4211C61.8001 13.5001 62.7633 14.7611 63.4317 16.204C64.1132 17.647 64.4539 19.1939 64.4539 20.8449C64.4539 22.4958 64.1132 24.0428 63.4317 25.4857C62.7633 26.9287 61.8001 28.1897 60.5419 29.2686C59.2969 30.3476 57.7832 31.1991 56.0009 31.823C54.2316 32.447 52.2396 32.759 50.0248 32.759C47.8099 32.759 45.8113 32.447 44.029 31.823C42.2598 31.1991 40.7461 30.3476 39.4879 29.2686C38.2429 28.1897 37.2797 26.9287 36.5982 25.4857C35.9298 24.0428 35.5956 22.4958 35.5956 20.8449ZM41.7093 20.8449C41.7093 21.7678 41.8928 22.6453 42.2598 23.4773C42.6398 24.2963 43.1837 25.0243 43.8914 25.6612C44.6122 26.2852 45.4837 26.7857 46.5059 27.1627C47.5413 27.5267 48.7142 27.7087 50.0248 27.7087C51.3353 27.7087 52.5017 27.5267 53.5239 27.1627C54.5593 26.7857 55.4308 26.2852 56.1385 25.6612C56.8593 25.0243 57.4032 24.2963 57.7701 23.4773C58.1502 22.6453 58.3402 21.7678 58.3402 20.8449C58.3402 19.9219 58.1502 19.0444 57.7701 18.2125C57.4032 17.3805 56.8593 16.6525 56.1385 16.0285C55.4308 15.3915 54.5593 14.8911 53.5239 14.5271C52.5017 14.1501 51.3353 13.9616 50.0248 13.9616C48.7142 13.9616 47.5413 14.1501 46.5059 14.5271C45.4837 14.8911 44.6122 15.3915 43.8914 16.0285C43.1837 16.6525 42.6398 17.3805 42.2598 18.2125C41.8928 19.0444 41.7093 19.9219 41.7093 20.8449Z" fill="#131730"/>
<path d="M64.5074 20.9034C64.5074 19.2134 64.8154 17.6405 65.4313 16.1845C66.0604 14.7156 66.9712 13.4481 68.1638 12.3821C69.3695 11.3032 70.8374 10.4582 72.5673 9.84721C74.3103 9.23622 76.2958 8.93073 78.5237 8.93073C79.4935 8.93073 80.4699 8.98923 81.4528 9.10623C82.4357 9.22322 83.3793 9.39222 84.2836 9.61321C85.201 9.82121 86.0594 10.0747 86.8588 10.3737C87.6583 10.6597 88.3529 10.9782 88.9426 11.3292L86.2494 15.6775C84.9782 15.0925 83.7725 14.6636 82.6323 14.3906C81.5052 14.1176 80.3585 13.9811 79.1921 13.9811C77.8554 13.9811 76.6562 14.1566 75.5947 14.5076C74.5331 14.8456 73.6288 15.3265 72.8818 15.9505C72.1479 16.5615 71.5844 17.2895 71.1912 18.1345C70.8111 18.9664 70.6211 19.8764 70.6211 20.8644C70.6211 21.8523 70.8243 22.7688 71.2305 23.6138C71.6499 24.4458 72.2331 25.1672 72.9801 25.7782C73.7402 26.3762 74.6511 26.8507 75.7126 27.2017C76.7873 27.5397 77.9799 27.7087 79.2904 27.7087C80.732 27.7087 82.0884 27.5072 83.3597 27.1042C84.644 26.7012 85.8366 26.1617 86.9375 25.4857L89.6307 29.8341C88.9361 30.2501 88.1825 30.6401 87.37 31.0041C86.5574 31.3551 85.6859 31.6606 84.7554 31.9205C83.838 32.1805 82.8682 32.382 81.846 32.525C80.8369 32.681 79.7884 32.759 78.7007 32.759C76.4858 32.759 74.5004 32.46 72.7442 31.862C70.9881 31.2641 69.5006 30.4386 68.2818 29.3856C67.063 28.3197 66.1259 27.0652 65.4707 25.6222C64.8285 24.1793 64.5074 22.6063 64.5074 20.9034Z" fill="#131730"/>
<path d="M94.5397 6.20081C93.9631 6.20081 93.4389 6.12282 92.967 5.96682C92.5084 5.79783 92.1152 5.57683 91.7876 5.30384C91.4599 5.01785 91.2044 4.69286 91.0209 4.32887C90.8505 3.95188 90.7653 3.55539 90.7653 3.13941C90.7653 2.71042 90.8505 2.31393 91.0209 1.94994C91.2044 1.57295 91.4599 1.24796 91.7876 0.974971C92.1152 0.701979 92.5084 0.487485 92.967 0.33149C93.4389 0.162495 93.9631 0.0779977 94.5397 0.0779977C95.1295 0.0779977 95.6537 0.162495 96.1124 0.33149C96.5842 0.487485 96.9839 0.701979 97.3115 0.974971C97.6392 1.24796 97.8882 1.57295 98.0585 1.94994C98.242 2.31393 98.3338 2.71042 98.3338 3.13941C98.3338 3.55539 98.242 3.95188 98.0585 4.32887C97.8882 4.69286 97.6392 5.01785 97.3115 5.30384C96.9839 5.57683 96.5842 5.79783 96.1124 5.96682C95.6537 6.12282 95.1295 6.20081 94.5397 6.20081ZM91.6303 9.34022H97.4491V32.3495H91.6303V9.34022Z" fill="#131730"/>
<path d="M99.3898 25.0957C99.3898 23.9908 99.6323 22.9833 100.117 22.0733C100.602 21.1634 101.329 20.3834 102.299 19.7334C103.269 19.0704 104.475 18.5634 105.916 18.2125C107.371 17.8485 109.062 17.6665 110.988 17.6665C112.417 17.6665 113.917 17.7705 115.49 17.9785C117.076 18.1865 118.707 18.5049 120.385 18.9339C120.319 18.206 120.097 17.5365 119.716 16.9255C119.336 16.3015 118.806 15.7685 118.124 15.3265C117.456 14.8716 116.643 14.5206 115.687 14.2736C114.743 14.0266 113.668 13.9031 112.463 13.9031C111.807 13.9031 111.086 13.9421 110.3 14.0201C109.514 14.0981 108.701 14.2151 107.863 14.3711C107.024 14.5271 106.192 14.7221 105.366 14.9561C104.553 15.19 103.793 15.4695 103.086 15.7945L101.316 11.0562C102.194 10.7442 103.131 10.4582 104.127 10.1982C105.137 9.9382 106.165 9.71721 107.214 9.53522C108.262 9.34022 109.311 9.19073 110.359 9.08673C111.408 8.98273 112.423 8.93073 113.406 8.93073C117.744 8.93073 120.968 10.0292 123.078 12.2261C125.188 14.4231 126.243 17.79 126.243 22.3268V32.3495H120.424V30.1851C119.821 30.5361 119.159 30.8676 118.439 31.1796C117.731 31.4916 116.958 31.7646 116.119 31.9985C115.28 32.2325 114.376 32.4145 113.406 32.5445C112.449 32.6875 111.434 32.759 110.359 32.759C108.551 32.759 106.958 32.564 105.582 32.174C104.219 31.784 103.079 31.2446 102.162 30.5556C101.244 29.8666 100.55 29.0606 100.078 28.1377C99.6191 27.2017 99.3898 26.1877 99.3898 25.0957ZM105.523 24.9008C105.523 25.2777 105.621 25.6417 105.818 25.9927C106.015 26.3307 106.329 26.6362 106.762 26.9092C107.194 27.1692 107.745 27.3837 108.413 27.5527C109.094 27.7087 109.914 27.7867 110.87 27.7867C111.892 27.7867 112.882 27.6957 113.839 27.5137C114.795 27.3317 115.687 27.0912 116.512 26.7922C117.338 26.4932 118.085 26.1487 118.753 25.7587C119.422 25.3687 119.979 24.9658 120.424 24.5498V23.5358C119.533 23.2888 118.648 23.0808 117.77 22.9118C116.905 22.7428 116.073 22.6128 115.274 22.5218C114.487 22.4178 113.74 22.3463 113.033 22.3073C112.338 22.2683 111.729 22.2488 111.204 22.2488C110.117 22.2488 109.212 22.3203 108.492 22.4633C107.771 22.6063 107.188 22.8013 106.742 23.0483C106.296 23.2823 105.982 23.5618 105.798 23.8868C105.615 24.2118 105.523 24.5498 105.523 24.9008Z" fill="#131730"/>
<path d="M129.678 0H135.497V32.3495H129.678V0Z" fill="#131730"/>
<path d="M147.634 9.34022H153.453V11.2902C154.908 10.4062 156.323 9.79521 157.699 9.45722C159.089 9.10623 160.445 8.93073 161.769 8.93073C163.616 8.93073 165.314 9.22322 166.86 9.80821C168.407 10.3932 169.73 11.2772 170.831 12.4601C171.683 11.8101 172.522 11.2642 173.347 10.8222C174.173 10.3672 174.999 10.0032 175.824 9.73021C176.65 9.44422 177.489 9.24272 178.341 9.12573C179.192 8.99573 180.07 8.93073 180.975 8.93073C182.875 8.93073 184.598 9.19073 186.145 9.71071C187.691 10.2177 189.008 10.9782 190.096 11.9921C191.197 13.0061 192.042 14.2736 192.632 15.7945C193.235 17.3025 193.536 19.0509 193.536 21.0399V32.3495H187.737V21.9758C187.737 20.7149 187.554 19.5904 187.187 18.6024C186.833 17.6015 186.328 16.763 185.673 16.087C185.031 15.398 184.258 14.8781 183.353 14.5271C182.462 14.1631 181.479 13.9811 180.405 13.9811C179.815 13.9811 179.212 14.0396 178.596 14.1566C177.98 14.2606 177.377 14.4296 176.788 14.6636C176.211 14.8976 175.667 15.1965 175.156 15.5605C174.645 15.9115 174.199 16.3275 173.819 16.8085V32.3495H168.02V21.9758C168.02 20.7149 167.836 19.5904 167.469 18.6024C167.116 17.6015 166.611 16.763 165.956 16.087C165.314 15.398 164.534 14.8781 163.616 14.5271C162.712 14.1631 161.716 13.9811 160.628 13.9811C159.96 13.9811 159.285 14.0526 158.604 14.1956C157.935 14.3256 157.287 14.5141 156.657 14.7611C156.041 15.0081 155.458 15.307 154.908 15.658C154.371 16.009 153.886 16.4055 153.453 16.8475V32.3495H147.634V9.34022Z" fill="#131730"/>
<path d="M195.339 25.0957C195.339 23.9908 195.582 22.9833 196.067 22.0733C196.552 21.1634 197.279 20.3834 198.249 19.7334C199.219 19.0704 200.424 18.5634 201.866 18.2125C203.321 17.8485 205.011 17.6665 206.938 17.6665C208.366 17.6665 209.867 17.7705 211.44 17.9785C213.025 18.1865 214.657 18.5049 216.334 18.9339C216.269 18.206 216.046 17.5365 215.666 16.9255C215.286 16.3015 214.755 15.7685 214.074 15.3265C213.405 14.8716 212.593 14.5206 211.636 14.2736C210.693 14.0266 209.618 13.9031 208.412 13.9031C207.757 13.9031 207.036 13.9421 206.25 14.0201C205.463 14.0981 204.651 14.2151 203.812 14.3711C202.973 14.5271 202.141 14.7221 201.316 14.9561C200.503 15.19 199.743 15.4695 199.035 15.7945L197.266 11.0562C198.144 10.7442 199.081 10.4582 200.077 10.1982C201.086 9.9382 202.115 9.71721 203.163 9.53522C204.212 9.34022 205.26 9.19073 206.309 9.08673C207.357 8.98273 208.373 8.93073 209.356 8.93073C213.694 8.93073 216.918 10.0292 219.028 12.2261C221.138 14.4231 222.193 17.79 222.193 22.3268V32.3495H216.374V30.1851C215.771 30.5361 215.109 30.8676 214.388 31.1796C213.681 31.4916 212.907 31.7646 212.069 31.9985C211.23 32.2325 210.326 32.4145 209.356 32.5445C208.399 32.6875 207.383 32.759 206.309 32.759C204.5 32.759 202.908 32.564 201.532 32.174C200.169 31.784 199.029 31.2446 198.111 30.5556C197.194 29.8666 196.499 29.0606 196.027 28.1377C195.569 27.2017 195.339 26.1877 195.339 25.0957ZM201.473 24.9008C201.473 25.2777 201.571 25.6417 201.768 25.9927C201.964 26.3307 202.279 26.6362 202.711 26.9092C203.144 27.1692 203.694 27.3837 204.363 27.5527C205.044 27.7087 205.863 27.7867 206.82 27.7867C207.842 27.7867 208.832 27.6957 209.788 27.5137C210.745 27.3317 211.636 27.0912 212.462 26.7922C213.287 26.4932 214.034 26.1487 214.703 25.7587C215.371 25.3687 215.928 24.9658 216.374 24.5498V23.5358C215.483 23.2888 214.598 23.0808 213.72 22.9118C212.855 22.7428 212.023 22.6128 211.223 22.5218C210.437 22.4178 209.69 22.3463 208.982 22.3073C208.288 22.2683 207.678 22.2488 207.154 22.2488C206.066 22.2488 205.162 22.3203 204.441 22.4633C203.72 22.6063 203.137 22.8013 202.692 23.0483C202.246 23.2823 201.931 23.5618 201.748 23.8868C201.565 24.2118 201.473 24.5498 201.473 24.9008Z" fill="#131730"/>
<path d="M231.132 41.7483H225.313V9.34022H231.132V11.5047C231.643 11.1537 232.246 10.8222 232.94 10.5102C233.635 10.1982 234.382 9.9252 235.181 9.69121C235.981 9.45722 236.806 9.27522 237.658 9.14523C238.51 9.00223 239.362 8.93073 240.214 8.93073C242.18 8.93073 243.982 9.21672 245.62 9.78871C247.271 10.3607 248.686 11.1667 249.866 12.2066C251.045 13.2466 251.963 14.4946 252.618 15.9505C253.286 17.3935 253.621 18.9924 253.621 20.7474C253.621 22.5803 253.273 24.2378 252.579 25.7197C251.884 27.1887 250.921 28.4496 249.689 29.5026C248.47 30.5426 247.015 31.3486 245.325 31.9205C243.647 32.4795 241.826 32.759 239.86 32.759C239.021 32.759 238.189 32.707 237.363 32.603C236.551 32.499 235.764 32.356 235.004 32.174C234.257 31.992 233.55 31.7775 232.881 31.5306C232.226 31.2706 231.643 30.9911 231.132 30.6921V41.7483ZM231.132 25.1152C231.721 25.5832 232.344 25.9797 232.999 26.3047C233.654 26.6297 234.323 26.8962 235.004 27.1042C235.686 27.3122 236.374 27.4682 237.068 27.5722C237.763 27.6632 238.438 27.7087 239.093 27.7087C240.43 27.7087 241.616 27.5332 242.651 27.1822C243.7 26.8182 244.578 26.3242 245.286 25.7002C246.006 25.0763 246.557 24.3418 246.937 23.4968C247.317 22.6518 247.507 21.7353 247.507 20.7474C247.507 19.8244 247.317 18.9534 246.937 18.1345C246.57 17.3155 246.033 16.6005 245.325 15.9895C244.63 15.3655 243.785 14.8781 242.789 14.5271C241.806 14.1631 240.699 13.9811 239.467 13.9811C238.68 13.9811 237.894 14.0591 237.108 14.2151C236.321 14.3581 235.561 14.5661 234.827 14.8391C234.107 15.112 233.425 15.4435 232.783 15.8335C232.154 16.2235 231.603 16.659 231.132 17.14V25.1152Z" fill="#131730"/>
</svg>
