<svg width="47" height="48" viewBox="0 0 47 48" fill="none" xmlns="http://www.w3.org/2000/svg">
<path d="M32.4635 39.4973L21.1698 28.2055C16.9473 30.9911 11.3018 30.1294 8.10246 26.211C4.90316 22.2927 5.188 16.5889 8.76178 13.0088C12.3412 9.4337 18.0457 9.14762 21.9649 12.3467C25.884 15.5458 26.7462 21.1919 23.9604 25.4149L35.2502 36.7086L32.4635 39.4973ZM15.7334 14.0663C12.912 14.0645 10.4821 16.056 9.9299 18.8229C9.37766 21.5898 10.8568 24.3615 13.4628 25.443C16.0688 26.5244 19.0758 25.6145 20.6449 23.2696C22.214 20.9246 21.9082 17.7979 19.9145 15.8014C18.8085 14.6878 17.3029 14.063 15.7334 14.0663ZM41.1252 17.9556H29.3752V14.0389H41.1252V17.9556Z" fill="#DEFD6D"/>
</svg>
