<svg width="47" height="47" viewBox="0 0 47 47" fill="none" xmlns="http://www.w3.org/2000/svg">
<path d="M32.4635 39.168L21.1698 27.8762C16.9473 30.6618 11.3018 29.8001 8.10246 25.8817C4.90316 21.9634 5.188 16.2596 8.76178 12.6796C12.3412 9.10441 18.0457 8.81832 21.9649 12.0174C25.884 15.2165 26.7462 20.8626 23.9604 25.0856L35.2502 36.3793L32.4635 39.168ZM15.7334 13.737C12.912 13.7353 10.4821 15.7268 9.9299 18.4937C9.37766 21.2606 10.8568 24.0322 13.4628 25.1137C16.0688 26.1952 19.0758 25.2852 20.6449 22.9403C22.214 20.5953 21.9082 17.4686 19.9145 15.4721C18.8085 14.3585 17.3029 13.7337 15.7334 13.737ZM37.2085 21.543H33.2919V17.6263H29.3752V13.7096H33.2919V9.79297H37.2085V13.7096H41.1252V17.6263H37.2085V21.543Z" fill="#DEFD6D"/>
</svg>
